<svg id="Layer_1" data-name="Layer 1" xmlns="http://www.w3.org/2000/svg" width="120" height="120" viewBox="0 0 120 120"><title>Artboard 1</title><path d="M57,25.72c.07-2.63.74-5.21.81-7.84l-.81.81c2.78-.28,5.54-.58,8.29-1.11l-1-.57a31.84,31.84,0,0,1,.78,8.71c-.09,1,1.53,1,1.61,0a33.51,33.51,0,0,0-.84-9.14.82.82,0,0,0-1-.57c-2.6.5-5.23.79-7.86,1.05a.83.83,0,0,0-.81.81c-.06,2.64-.74,5.21-.81,7.84a.81.81,0,0,0,1.61,0Z"/><path d="M93.48,80.16c6.3-13.83,4.25-31-7-41.59C81.62,34,66.14,21.71,59.64,28.4c-.73.75.41,1.9,1.14,1.15,5.68-5.84,21.29,7.1,25.62,11.18,10.2,9.63,11.25,26.39,5.69,38.61-.43.94,1,1.77,1.39.82Z"/><path d="M60.75,26.8C40.91,27.39,20.65,49,23.41,69.38c.83,6.09,5.19,12.28,8.3,17.4a33.58,33.58,0,0,0,12.18,11.6c11.81,6.82,22.92,3.31,34.76-1,1-.36.55-1.92-.43-1.56a130.46,130.46,0,0,1-12.9,4.47c-6.44,1.62-13.22.16-19.15-2.52C36.09,93.17,29.92,82.27,25.93,72.36S28,50.57,34.18,42.88c6.47-8.1,16.09-14.14,26.57-14.45,1,0,1-1.65,0-1.62Z"/><path d="M58.9,51.09a90,90,0,0,1,1.59,14.12.83.83,0,0,0,.81.81c5,.53,10,.8,15.07,1.08,1,.06,1-1.57,0-1.62-5-.28-10.06-.55-15.07-1.08l.81.81a92.7,92.7,0,0,0-1.64-14.55c-.18-1-1.73-.59-1.56.43Z"/><path d="M58.6,29.78a31.16,31.16,0,0,0,.84,8.6A.81.81,0,0,0,61,37.95a29.62,29.62,0,0,1-.78-8.17.81.81,0,0,0-1.61,0Z"/><path d="M36.29,41.08c.8,2.11,3,3.18,4.51,4.68.75.73,1.89-.42,1.14-1.15s-1.5-1.28-2.26-1.9a5.57,5.57,0,0,1-1.84-2.07c-.37-1-1.93-.55-1.56.43Z"/><path d="M22.81,65.75c4.31,0,8.6.2,12.86-.57,1-.18.59-1.75-.43-1.56-4.11.74-8.28.53-12.43.51a.81.81,0,0,0,0,1.62Z"/><path d="M38.18,90.12c1.16-1.19,2.07-2.6,3.23-3.79.73-.75-.41-1.9-1.14-1.15C39.1,86.37,38.19,87.78,37,89c-.73.75.41,1.9,1.14,1.15Z"/><path d="M60.45,99.49c.53-2.3.75-4.69,1.08-7,.14-1-1.41-1.46-1.56-.43-.33,2.34-.54,4.73-1.08,7-.24,1,1.32,1.45,1.56.43Z"/><path d="M86.37,65.72c2.63.51,5.25-1.11,7.8-.54,1,.22,1.45-1.34.43-1.56-2.62-.58-5.2,1.05-7.8.54-1-.2-1.45,1.37-.43,1.56Z"/><path d="M80.8,45.89c2.18-1,3.91-2.81,5.92-4.06.88-.55.07-2-.81-1.4-2,1.25-3.74,3.1-5.92,4.06-1,.42-.13,1.82.81,1.4Z"/><path d="M78.38,97c7-4.71,12.53-9.49,15.17-17.79.32-1-1.24-1.42-1.56-.43-2.51,7.89-7.79,12.36-14.43,16.82-.86.58-.05,2,.81,1.4Z"/><path d="M79.45,84.56c2.26,1.4,4.63,2.59,7,3.79.93.47,1.75-.93.81-1.4-2.37-1.19-4.74-2.39-7-3.79-.89-.55-1.7.85-.81,1.4Z"/></svg>