<svg id="Layer_1" data-name="Layer 1" xmlns="http://www.w3.org/2000/svg" width="46.76" height="36.38" viewBox="0 0 46.76 36.38"><defs><style>.cls-1{fill:#231f20;}</style></defs><title>factory</title><g id="g3472"><g id="g3769"><g id="g3732"><path id="path3734" class="cls-1" d="M18,21.68c-2.19,0-4.37,0-6.56,0-1.62,0-3.25,0-4.87-.1-1.05,0-2.1-.15-3.15-.24A1.55,1.55,0,0,1,3,21.22c-.4-.16-.5-.12-.61.31a3.68,3.68,0,0,0-.09.75c-.06,1.34-.13,2.68-.15,4a5.19,5.19,0,0,0,.23,1.06,1.2,1.2,0,0,1,0,.51,8.65,8.65,0,0,0,.06,2.27c0,.48,0,1,0,1.45,0,.29.07.58.11.86,0,.09,0,.18.05.28a24.44,24.44,0,0,1,.13,2.47,2.74,2.74,0,0,1-.47,1.14c0,.08-.36,0-.53,0s-.36-.29-.35-.59c0-1,0-2,0-2.93-.08-1.13-.27-2.25-.37-3.39S.89,27.31.88,26.25.91,24,1,22.92c0-.8.13-1.6.22-2.4A1.13,1.13,0,0,1,2.4,19.44c.56.05,1.12.21,1.68.3.26,0,.52.06.78.08,1.24.1,2.47.24,3.71.27,2.37.06,4.74.06,7.11.06.8,0,1.6,0,2.39-.08a5.29,5.29,0,0,0,.87-.11.57.57,0,0,0,.52-.62c0-.5.19-1,.21-1.5.05-1.29.09-2.59.06-3.88a13.29,13.29,0,0,0-.32-1.83,13,13,0,0,1-.25-1.73c0-1.6,0-3.19-.06-4.79a.9.9,0,0,1,1-1,4.12,4.12,0,0,0,1.31-.32c.85-.35,1.65-.1,2.21,1l.44.84a5.58,5.58,0,0,1,.69,2.58,4.48,4.48,0,0,0,.24,1s0,.07.06.1c.12.58.24,1.16.35,1.74s.25,1.27.36,1.91c.07.42.12.84.19,1.26s.12.85.21,1.26.28,1.08.4,1.62a5,5,0,0,1,.25,1.4,1.63,1.63,0,0,0,1.62,1.47,8,8,0,0,1,1.45,0,.64.64,0,0,1,.44.36,5.41,5.41,0,0,1,.32,1.31,20.78,20.78,0,0,1,.11,2.61c0,1.1-.2,2.2-.27,3.31a12.36,12.36,0,0,0,.06,1.48c0,.2.07.4.07.6,0,1.21,0,2.41,0,3.62q0,1.37.07,2.73c0,.5-.14.82-.58.93a.49.49,0,0,1-.41-.26,3.65,3.65,0,0,1-.17-1c0-1.14,0-2.28,0-3.42s-.18-2.56-.22-3.85c0-.69.09-1.39.09-2.08,0-1,0-2.06-.06-3.09,0-.36-.09-.72-.12-1.08s-.21-.55-.59-.49a3.09,3.09,0,0,1-2.23-.57,1.91,1.91,0,0,1-.92-1.59,15.41,15.41,0,0,0-.55-3.32,8.36,8.36,0,0,0-.66-2.29A2.6,2.6,0,0,1,24,13.19a10.39,10.39,0,0,0-.52-3.26c-.2-.61-.15-1.3-.33-1.93a9.78,9.78,0,0,0-.76-1.82c-.23-.44-.69-.27-1.07-.27a1.79,1.79,0,0,0-.23.06c-.76.13-.76.13-.76.89,0,.6,0,1.21,0,1.81s.18,1.05.22,1.58c.12,1.55.2,3.1.3,4.66a4.35,4.35,0,0,0,.17,1.22c.25.67,0,1.3,0,1.94,0,.89-.1,1.79-.15,2.68a.9.9,0,0,1-.78.81c-.69,0-1.39,0-2.08,0Z" transform="translate(-0.88 -1)"/></g><g id="g3736"><path id="path3738" class="cls-1" d="M32.86,4.54,32,4.46a.36.36,0,0,1-.22-.07,3,3,0,0,0-2.32-.75c-.48,0-1,0-1.45,0-.16,0-.46-.16-.45-.24,0-.29,0-.72.22-.82A6.72,6.72,0,0,1,29.4,2a1.73,1.73,0,0,1,.85.08c.54.16,1.05.41,1.6.55a2.86,2.86,0,0,0,2.81-.45,2.7,2.7,0,0,1,3.15-.48,6.49,6.49,0,0,1,1.49,1,2,2,0,0,0,2.76,0,12.91,12.91,0,0,0,1.2-1c1-1.09,2.18-.52,3.3-.51a7,7,0,0,1,1,1.06c.1.16-.08.59-.24.82s-.38.06-.58-.09a2.68,2.68,0,0,0-3.12,0c-.58.47-1.11,1-1.71,1.45a1.94,1.94,0,0,1-1,.32,3.22,3.22,0,0,1-2.64-1.17,2,2,0,0,0-.81-.4,5.69,5.69,0,0,0-.82-.22,1,1,0,0,0-.42,0c-.27.07-.52.17-.79.25-.06,0-.15,0-.18.07-.34.56-1.06.53-1.46,1a1.11,1.11,0,0,1-1,.31" transform="translate(-0.88 -1)"/></g></g></g></svg>