<svg id="Layer_1" data-name="Layer 1" xmlns="http://www.w3.org/2000/svg" width="48" height="48" viewBox="0 0 48 48"><title>Artboard 1</title><path d="M23.68,39.84c-2.93-1.51-4.08-5.2-6-7.62-2.84-3.51-5.87-6.85-8.16-10.74C6.79,16.9,7.36,10.94,13.18,9.16a8.79,8.79,0,0,1,6.49.45c1.83,1,2.79,3.15,3.79,4.81a.32.32,0,0,0,.58-.07,9.61,9.61,0,0,1,8.07-5.7c4.58-.47,6.68,2.8,7.1,6.7.26,2.47.19,5.16-1.22,7.31-1.23,1.87-3.22,3.19-4.5,5.08a64.16,64.16,0,0,1-5.61,6.73c-1.7,1.9-2.62,4-4,6.09-.22.33.33.63.55.31.81-1.23,1.38-2.58,2.15-3.83a30.56,30.56,0,0,1,3.75-4.31c2.36-2.54,4-5.58,6.54-8a8.81,8.81,0,0,0,3-5.72,14.32,14.32,0,0,0-.76-7.23c-3.17-6.93-13.41-3.35-15.67,2.37l.58-.07A16.4,16.4,0,0,0,20.5,9.43C19,8.2,16.76,8.08,14.85,8.23,10.36,8.6,7.3,11.74,7.19,16c-.13,5,4.21,9.64,7.24,13.27a60.16,60.16,0,0,1,5.08,6.81c1,1.61,2.09,3.34,3.86,4.25.36.18.68-.34.32-.52Z"/></svg>