<svg id="Layer_1" data-name="Layer 1" xmlns="http://www.w3.org/2000/svg" width="15.08" height="37.7" viewBox="0 0 15.08 37.7"><defs><style>.cls-1{fill:#231f20;}</style></defs><title>human</title><g id="g3472"><g id="g3728"><path id="path3730" class="cls-1" d="M15.83,6.12c0,.15,0,.23,0,.31A1.62,1.62,0,0,0,16.64,8a4.5,4.5,0,0,1,.77.88.61.61,0,0,0,.14.14,2.17,2.17,0,0,0,1.24.39A8.41,8.41,0,0,0,21,9.12a2.92,2.92,0,0,0,2-2.27,1.84,1.84,0,0,0,0-.79,5.76,5.76,0,0,0-1-2.15,3.35,3.35,0,0,0-.36-.57A3.32,3.32,0,0,0,19,2.62a2,2,0,0,0-.92.24c-.51.34-.94.79-1.42,1.17a1.93,1.93,0,0,0-.81,2.09m2.81,7.94c0-.79,0-1.58,0-2.36a.83.83,0,0,0-.64-.76,2.57,2.57,0,0,1-2-1.18c-.42-.6-.87-1.18-1.23-1.82a3.05,3.05,0,0,1-.45-1.31,4.22,4.22,0,0,1,.23-1.8,7.47,7.47,0,0,1,1.3-2.13,11,11,0,0,1,1.88-1.36A2.35,2.35,0,0,1,19.43,1a8.59,8.59,0,0,1,1.46.18,5.43,5.43,0,0,1,1.53.63,4.82,4.82,0,0,1,.94,1,6.14,6.14,0,0,1,1.19,3.27,3.34,3.34,0,0,1-.75,2.48c-.21.26-.4.52-.59.79a2.93,2.93,0,0,1-1.47,1.05,8.25,8.25,0,0,1-1.24.33.4.4,0,0,0-.37.44c0,.54,0,1.07-.07,1.61s-.1.93-.18,1.39c0,.21,0,.31.22.32a2,2,0,0,0,.56,0c1.18-.3,2.34-.63,3.52-.94.7-.18,1.4-.38,2.11-.51.55-.1.86.25.79.81s-.26.85-.87,1c-.91.23-1.83.42-2.73.67s-1.92.57-2.87.87c-.37.12-.5.43-.47.88.1,1.48.18,3,.29,4.44a1.49,1.49,0,0,0,.21.67A25.12,25.12,0,0,0,22,24.52a14.87,14.87,0,0,1,1.54,3.41,33.32,33.32,0,0,1,1.18,3.47c.14.43.18.89.3,1.32s.23.58.34.87A1.32,1.32,0,0,1,25.07,35a.57.57,0,0,1-.84.16,1,1,0,0,1-.35-.59c-.14-.8-.21-1.61-.36-2.41a11.11,11.11,0,0,0-.46-1.54c-.18-.51-.39-1-.59-1.52-.33-.82-.67-1.62-1-2.44a3.83,3.83,0,0,0-.69-1.47c-.1-.1-.17-.24-.27-.34a.51.51,0,0,0-.89.22c-.08.22-.19.44-.28.66l-.67,1.78s0,.06,0,.08c-.76.64-.43,1.72-1,2.44a7.31,7.31,0,0,0-.73,2c-.1.27-.35.48-.44.75a15.21,15.21,0,0,0-.34,1.48c-.16.76-.33,1.51-.46,2.27a6.24,6.24,0,0,0,0,1,1.2,1.2,0,0,1-.37,1.05c-.13.1-.36.21-.48.16a.84.84,0,0,1-.46-.44,1.83,1.83,0,0,1,0-.8,9.9,9.9,0,0,1,.37-2.21c.27-.71.39-1.43.6-2.15.29-1,.62-2,1-3,.25-.73.55-1.44.82-2.16.14-.37.23-.76.38-1.13.42-1,.86-2,1.27-3a2.84,2.84,0,0,0,.21-1c0-1.1-.08-2.19-.13-3.29,0-.6-.1-1.2-.14-1.8,0-.36-.27-.56-.81-.48s-1.35.33-2,.49c-.43.1-.86.17-1.28.27a13.08,13.08,0,0,1-1.59.38A1.47,1.47,0,0,1,12,18c-.09-.07,0-.45.07-.69.22-.92,1-.83,1.7-1s1.3-.27,1.95-.41,1-.24,1.51-.38a7.06,7.06,0,0,0,1.12-.43.64.64,0,0,0,.25-.41,2.75,2.75,0,0,0,0-.6Z" transform="translate(-12 -1)"/></g></g></svg>