<svg id="Layer_1" data-name="Layer 1" xmlns="http://www.w3.org/2000/svg" width="120" height="120" viewBox="0 0 120 120"><title>Artboard 1</title><path d="M49.16,81c.75-4.49-2.07-8.21-4.61-11.65a43.3,43.3,0,0,1-8.19-17.82c-2-9.06-1.19-17.93,5-25.13,5.38-6.24,13.7-8.85,21.65-8.83,7.45,0,14.38,4.46,19.61,9.47,5.41,5.18,6.79,13.59,6.7,20.73-.1,8-3.07,13.66-8.35,19.38C77.44,71,74.18,74.74,73,80l1.36-.36-1-1.2c-.57-.88-2-.06-1.4.83a8,8,0,0,0,1.21,1.53.82.82,0,0,0,1.36-.36c1.68-7.81,8.64-12.36,12.87-18.71,3.69-5.55,3.88-13.46,3.23-19.85-1.28-12.62-11.94-24.3-24.77-25.72C51.58,14.58,36.78,22.92,34.06,37.9c-1.41,7.75.88,16.51,3.52,23.74,2.26,6.19,11.21,11.75,10,18.93-.17,1,1.39,1.47,1.57.43Z"/><path d="M48.7,81.57c6.94,1.23,14.36.8,21.33,0,1-.11,1-1.75,0-1.64-6.8.75-14.13,1.23-20.9,0-1-.18-1.46,1.4-.43,1.58Z"/><path d="M51.93,60.27c2.36,6.57,3.81,13.39,5.41,20.18.24,1,1.81.59,1.57-.43-1.6-6.79-3-13.6-5.41-20.18-.35-1-1.92-.56-1.57.43Z"/><path d="M52.71,60.33c6,0,11.91-.25,17.87-.27l-.78-1c-1,7-4.74,13.25-6.23,20.18-.22,1,1.34,1.47,1.57.43,1.49-6.92,5.18-13.14,6.23-20.18a.83.83,0,0,0-.78-1c-6,0-11.91.25-17.87.27a.82.82,0,0,0,0,1.64Z"/><path d="M46.54,90.84C56,93.42,65.77,92.06,75.45,92a.82.82,0,0,0,0-1.64c-9.52.1-19.14,1.48-28.48-1.06a.82.82,0,0,0-.43,1.58Z"/><path d="M47.3,100.14c9-.23,18,0,27.07,0a.82.82,0,0,0,0-1.64c-9,0-18-.23-27.07,0a.82.82,0,0,0,0,1.64Z"/><path d="M52.49,106.38c5.47,1,11,.34,16.51,1.09,1,.14,1.47-1.44.43-1.58-5.49-.75-11-.13-16.51-1.09-1-.18-1.46,1.4-.43,1.58Z"/></svg>