<svg xmlns="http://www.w3.org/2000/svg" width="63.08" height="78.59" viewBox="0 0 63.08 78.59"><defs><style>.cls-1{fill:none;stroke:#fff;stroke-linejoin:round;}.cls-2{fill:#fff;}</style></defs><title>White PDF Icon</title><g id="Layer_2" data-name="Layer 2"><g id="Layer_1-2" data-name="Layer 1"><polygon class="cls-1" points="0.5 0.5 0.5 78.09 62.58 78.09 62.58 13.84 49.24 0.5 0.5 0.5"/><polygon class="cls-1" points="49.24 0.5 62.58 13.84 49.24 13.84 49.24 0.5"/><path class="cls-2" d="M12.22,43.66h1.87v1.89H12.22Z"/><path class="cls-2" d="M16.41,44.14H18V34.22H16.41V32.83h5.92a5.34,5.34,0,0,1,2.18.34,3.75,3.75,0,0,1,2.16,3.6,3.76,3.76,0,0,1-2.4,3.73,5.45,5.45,0,0,1-1.91.27H19.79v3.37h1.6v1.4h-5Zm5.74-4.84A3.66,3.66,0,0,0,23.58,39a2.31,2.31,0,0,0,1.28-2.27,2.28,2.28,0,0,0-1.13-2.16,3.3,3.3,0,0,0-1.55-.31H19.8v5h2.36Z"/><path class="cls-2" d="M28.16,44.14h1.58V34.22H28.16V32.83h5.42a9,9,0,0,1,2.7.31c2.43.76,4,3,4,6s-1.53,5.22-4,6a8.43,8.43,0,0,1-2.68.34H28.16Zm5.33-.07a5.8,5.8,0,0,0,2.16-.32c1.71-.59,2.77-2.23,2.77-4.56s-1.06-4-2.76-4.59a6.09,6.09,0,0,0-2.18-.29H31.55v9.76h1.94Z"/><path class="cls-2" d="M42.06,44.14h1.58V34.22H42.06V32.83h8.8v3H49.3V34.38H45.45V38.6h4.39v1.48H45.45v4.07h1.73v1.4H42.06Z"/></g></g></svg>