<svg id="Layer_1" data-name="Layer 1" xmlns="http://www.w3.org/2000/svg" width="22.98" height="36.69" viewBox="0 0 22.98 36.69"><title>robot</title><g id="_2N6M0A" data-name="2N6M0A"><path d="M11.64,34.7c0-1.41,0-2.82,0-4.23a1,1,0,0,0-.49-1c-.51-.32-1-.68-1.5-1a.76.76,0,0,0-.37-.08,1,1,0,0,1-.92-.7,5.44,5.44,0,0,1,0-4.79A8.15,8.15,0,0,1,11,19.71c.28-.2.57-.37.84-.58a.87.87,0,0,0,.32-.38c.15-.52.26-1.06.39-1.59a7.91,7.91,0,0,1,.29-1,11.12,11.12,0,0,1,.94-2.06,7.35,7.35,0,0,1,2.1-2.17,7.88,7.88,0,0,1,1.19-.62.82.82,0,0,0,.58-.92c0-1,.06-2.07.09-3.1a11.34,11.34,0,0,0,.06-1.76,1.87,1.87,0,0,0-.54-1c-.53-.51-.62-.83-.15-1.37S18,2,18.56,1.48a1.58,1.58,0,0,1,2,0c.37.32.19.73,0,1a4.37,4.37,0,0,1-.87,1.3A2.26,2.26,0,0,0,19,5.47c0,.95-.1,1.9-.11,2.85,0,.69.07,1.37.11,2.06,0,.31.25.39.49.45,1,.25,2.05.45,3,.78a8.46,8.46,0,0,1,1.8,1,7.52,7.52,0,0,1,1.59,1.22A6.92,6.92,0,0,1,27,15.62a11,11,0,0,1,.71,2.19A10.62,10.62,0,0,1,27.89,20a2,2,0,0,0,1.47,2.1,2.23,2.23,0,0,1,1.36,2.84,4.28,4.28,0,0,1-1.55,2c-.33.31-.65.55-1.15.33-.25-.11-.42,0-.39.33,0,.49.08,1,.1,1.46s0,.77,0,1.15a1.09,1.09,0,0,0,0,.3c.32,1,0,2,.15,3a7.65,7.65,0,0,1,0,1.2,2.49,2.49,0,0,1-1,1.77.7.7,0,0,1-.42.17c-1.39.07-2.78.1-4.17.18-.74,0-1.48.16-2.23.21s-1.67,0-2.5.11c-1,.12-2,.38-3.05.51a22.1,22.1,0,0,1-2.33.13c-.1,0-.27-.19-.29-.31-.12-.69-.21-1.38-.3-2.08a6.18,6.18,0,0,1,0-.73Zm6.68-10.56c-.07.91.13,1.92-.75,2.61,0,0,0,.08,0,.12a4.5,4.5,0,0,1-1.29,2c-.28.28-.75.38-1,.66a2.24,2.24,0,0,1-1.68.62.62.62,0,0,0-.45.39,8,8,0,0,0,0,1.66A1,1,0,0,0,14.2,33c.35-.06.7-.15,1.06-.2,1.75-.25,3.49-.51,5.24-.74,1.26-.17,2.53-.3,3.8-.44.37,0,.75,0,1.12-.1a1,1,0,0,0,1-1.16,19.66,19.66,0,0,0-.07-2c0-.46,0-1-.51-1.27a4,4,0,0,0-.92-.46,1,1,0,0,1-.78-1,3.68,3.68,0,0,1-.09-1.11,3.14,3.14,0,0,1,.5-1.38A7.11,7.11,0,0,1,26,21.89a.89.89,0,0,0,.47-.81,9.58,9.58,0,0,0-.3-3,4,4,0,0,1-.14-.59,5.68,5.68,0,0,0-1.46-2.82,15,15,0,0,0-1.94-1.31,3.18,3.18,0,0,0-1.51-.55,1.81,1.81,0,0,1-.25-.08c-.53-.16-1.05-.35-1.59-.47a4.4,4.4,0,0,0-1.11-.1,3.05,3.05,0,0,0-1.3.18,16.11,16.11,0,0,0-1.41,1.13,3.15,3.15,0,0,0-1.29,1.85,2,2,0,0,1-.21.37,2.28,2.28,0,0,0-.36.74,10.28,10.28,0,0,0,0,1.77c0,.23.18.61.34.64a3.27,3.27,0,0,1,1.36.74,9.68,9.68,0,0,1,2.18,2.1A3.25,3.25,0,0,1,18.32,24.13Zm-1.48.8a3.29,3.29,0,0,0-1.1-2.84c-.53-.49-1-1-1.61-1.42a1.83,1.83,0,0,0-.93-.36,3,3,0,0,0-1.71.45,4.64,4.64,0,0,0-1.09,1.12,4.08,4.08,0,0,0-.78,1.05,4.21,4.21,0,0,0-.43,3.13,3.21,3.21,0,0,0,.46,1,2.41,2.41,0,0,0,.8.46,7.26,7.26,0,0,1,1.15.58,3.15,3.15,0,0,0,1.67.62A2.1,2.1,0,0,0,15.4,28a9,9,0,0,1,.83-1.18A2.52,2.52,0,0,0,16.84,24.94Zm2.72,11v0a1.52,1.52,0,0,1,.3,0,5.38,5.38,0,0,0,1.9-.23.45.45,0,0,0,.3-.31,11.72,11.72,0,0,0,0-1.79c0-.15-.33-.37-.52-.39a9,9,0,0,0-1.28.09,10.63,10.63,0,0,1-1.41.08c-.91-.06-1.4.37-1.38,1.26,0,.16,0,.32,0,.47a1.12,1.12,0,0,0,1,.82Zm7.13-13.3c-.32-.1-.6.3-.94.54A1,1,0,0,0,26,25l.59.27a1.72,1.72,0,0,0,1.87-.09,1.56,1.56,0,0,1,.54-.25c.48-.12.57-.22.44-.68a1.54,1.54,0,0,0-.43-.76A4.14,4.14,0,0,0,26.69,22.64ZM24.81,35.49h0c.43,0,.86,0,1.29-.11.15,0,.38-.2.39-.31a12.5,12.5,0,0,0,0-1.83.83.83,0,0,0-.4-.5c-.66-.41-1.3-.08-1.92.15-.33.12-.67.3-.69.73s0,.83-.06,1.25.16.65.61.62C24.29,35.47,24.55,35.49,24.81,35.49ZM14.43,34.08h-.82c-.32,0-.53.12-.53.47a12.21,12.21,0,0,0,0,1.38c0,.3.2.59.59.57s.86-.08,1.28-.14c.91-.12,1.12-.38,1-1.28,0-.07,0-.14,0-.21a.86.86,0,0,0-.94-.79Z" transform="translate(-7.83 -1.13)"/><path d="M13.73,24.16a2.11,2.11,0,0,1-1,1.3.82.82,0,0,1-.86-.37.52.52,0,0,1,0-.74,3.12,3.12,0,0,1,.62-.7,1.1,1.1,0,0,1,.83-.17C13.53,23.55,13.61,23.93,13.73,24.16Z" transform="translate(-7.83 -1.13)"/></g></svg>