<?xml version="1.0" encoding="UTF-8" standalone="no"?><svg xmlns="http://www.w3.org/2000/svg" xmlns:xlink="http://www.w3.org/1999/xlink" contentScriptType="application/ecmascript" contentStyleType="text/css" height="635.9644px" preserveAspectRatio="none" style="width:544px;height:635px;" version="1.1" viewBox="0 0 544 635" width="544.6291px" zoomAndPan="magnify"><defs><filter height="300%" id="fut4fuf" width="300%" x="-1" y="-1"><feGaussianBlur result="blurOut" stdDeviation="6.765578635014837"/><feColorMatrix in="blurOut" result="blurOut2" type="matrix" values="0 0 0 0 0 0 0 0 0 0 0 0 0 0 0 0 0 0 .4 0"/><feOffset dx="13.531157270029674" dy="13.531157270029674" in="blurOut2" result="blurOut3"/><feBlend in="SourceGraphic" in2="blurOut3" mode="normal"/></filter></defs><g><line style="stroke: #383838; stroke-width: 3.3827893175074184; stroke-dasharray: 5.0,5.0;" x1="108.2493" x2="108.2493" y1="359.4552" y2="635.7276"/><line style="stroke: #383838; stroke-width: 3.3827893175074184; stroke-dasharray: 5.0,5.0;" x1="465.1335" x2="465.1335" y1="359.4552" y2="635.7276"/><text fill="#000000" font-family="PT Sans" font-size="47.3591" lengthAdjust="spacingAndGlyphs" textLength="118.3976" x="38.9021" y="285.0541">Buyer</text><text fill="#000000" font-family="PT Sans" font-size="47.3591" font-weight="bold" lengthAdjust="spacingAndGlyphs" textLength="142.0772" x="27.0623" y="346.3841">Sender</text><ellipse cx="108.2493" cy="43.9763" fill="#F8F8F8" filter="url(#fut4fuf)" rx="27.0623" ry="27.0623" style="stroke: #383838; stroke-width: 6.765578635014837;"/><path d="M108.2493,71.0386 L108.2493,162.3739 M64.273,98.1009 L152.2255,98.1009 M108.2493,162.3739 L64.273,213.1157 M108.2493,162.3739 L152.2255,213.1157 " fill="#F8F8F8" filter="url(#fut4fuf)" style="stroke: #383838; stroke-width: 6.765578635014837;"/><text fill="#000000" font-family="PT Sans" font-size="47.3591" lengthAdjust="spacingAndGlyphs" textLength="115.0148" x="399.1691" y="285.0541">Seller</text><text fill="#000000" font-family="PT Sans" font-size="47.3591" font-weight="bold" lengthAdjust="spacingAndGlyphs" textLength="172.5223" x="370.4154" y="346.3841">Receiver</text><ellipse cx="466.8249" cy="43.9763" fill="#F8F8F8" filter="url(#fut4fuf)" rx="27.0623" ry="27.0623" style="stroke: #383838; stroke-width: 6.765578635014837;"/><path d="M466.8249,71.0386 L466.8249,162.3739 M422.8487,98.1009 L510.8012,98.1009 M466.8249,162.3739 L422.8487,213.1157 M466.8249,162.3739 L510.8012,213.1157 " fill="#F8F8F8" filter="url(#fut4fuf)" style="stroke: #383838; stroke-width: 6.765578635014837;"/><polygon fill="#383838" points="426.2315,454.1733,460.0593,467.7044,426.2315,481.2356,439.7626,467.7044" style="stroke: #383838; stroke-width: 3.3827893175074184;"/><line style="stroke: #383838; stroke-width: 3.3827893175074184;" x1="108.2493" x2="446.5282" y1="467.7044" y2="467.7044"/><text fill="#000000" font-family="PT Sans" font-size="43.9763" lengthAdjust="spacingAndGlyphs" textLength="233.4125" x="131.9288" y="451.626">Send money</text><polygon fill="#383838" points="145.4599,558.4816,111.632,572.0128,145.4599,585.5439,131.9288,572.0128" style="stroke: #383838; stroke-width: 3.3827893175074184;"/><line style="stroke: #383838; stroke-width: 3.3827893175074184; stroke-dasharray: 2.0,2.0;" x1="125.1632" x2="463.4421" y1="572.0128" y2="572.0128"/><text fill="#000000" font-family="PT Sans" font-size="43.9763" lengthAdjust="spacingAndGlyphs" textLength="277.3887" x="165.7567" y="555.9344">Provide service</text></g></svg>