<svg xmlns="http://www.w3.org/2000/svg" width="828.87" height="213.85" viewBox="0 0 828.87 213.85"><defs><style>.cls-1,.cls-10,.cls-2,.cls-8{fill:none;stroke-miterlimit:10;}.cls-1,.cls-2{stroke:#000;}.cls-2{stroke-dasharray:12.53 12.53;}.cls-3{font-size:30px;font-family:PTSans-Regular, PT Sans;}.cls-4{letter-spacing:-0.01em;}.cls-5{letter-spacing:0em;}.cls-6{letter-spacing:0.02em;}.cls-7{letter-spacing:-0.04em;}.cls-8{stroke:#d8cd57;}.cls-10,.cls-8{stroke-width:4px;}.cls-9{fill:#d8cd57;}.cls-10{stroke:#d03f71;}.cls-11{fill:#d03f71;}.cls-12{letter-spacing:-0.05em;}.cls-13{letter-spacing:0.02em;}.cls-14{letter-spacing:-0.04em;}</style></defs><title>Asset 1</title><g id="Layer_2" data-name="Layer 2"><g id="Layer_1-2" data-name="Layer 1"><line class="cls-1" x1="92.62" y1="16.42" x2="98.62" y2="16.42"/><line class="cls-2" x1="111.15" y1="16.42" x2="355.54" y2="16.42"/><line class="cls-1" x1="361.81" y1="16.42" x2="367.81" y2="16.42"/><polygon points="374.87 16.43 364.92 20.49 367.28 16.43 364.92 12.36 374.87 16.43"/><line class="cls-1" x1="92.62" y1="139.42" x2="98.62" y2="139.42"/><line class="cls-2" x1="111.15" y1="139.42" x2="355.54" y2="139.42"/><line class="cls-1" x1="361.81" y1="139.42" x2="367.81" y2="139.42"/><polygon points="374.87 139.43 364.92 143.49 367.28 139.43 364.92 135.36 374.87 139.43"/><text class="cls-3" transform="translate(0 25.5)">Ser<tspan class="cls-4" x="41.37" y="0">v</tspan><tspan class="cls-5" x="55.5" y="0">er</tspan></text><text class="cls-3" transform="translate(5.19 148.5)">Client</text><text class="cls-3" transform="translate(210.19 206.5)">H<tspan class="cls-6" x="20.16" y="0">T</tspan><tspan x="37.41" y="0">T</tspan><tspan class="cls-7" x="54.06" y="0">P</tspan></text><line class="cls-8" x1="162.87" y1="20.02" x2="206.49" y2="125.96"/><polygon class="cls-9" points="211.87 139.02 196.78 123.72 206.09 124.98 211.81 117.52 211.87 139.02"/><line class="cls-10" x1="116.87" y1="140.02" x2="158.9" y2="28.24"/><polygon class="cls-11" points="163.87 15.02 164.48 36.51 158.53 29.23 149.26 30.78 163.87 15.02"/><line class="cls-8" x1="286.87" y1="20.02" x2="330.49" y2="125.96"/><polygon class="cls-9" points="335.87 139.02 320.78 123.72 330.09 124.98 335.81 117.52 335.87 139.02"/><line class="cls-10" x1="240.87" y1="140.02" x2="282.9" y2="28.24"/><polygon class="cls-11" points="287.87 15.02 288.48 36.51 282.53 29.23 273.26 30.78 287.87 15.02"/><line class="cls-1" x1="546.62" y1="16.42" x2="552.62" y2="16.42"/><line class="cls-2" x1="565.15" y1="16.42" x2="809.54" y2="16.42"/><line class="cls-1" x1="815.81" y1="16.42" x2="821.81" y2="16.42"/><polygon points="828.87 16.43 818.92 20.49 821.28 16.43 818.92 12.36 828.87 16.43"/><line class="cls-1" x1="546.62" y1="139.42" x2="552.62" y2="139.42"/><line class="cls-2" x1="565.15" y1="139.42" x2="809.54" y2="139.42"/><line class="cls-1" x1="815.81" y1="139.42" x2="821.81" y2="139.42"/><polygon points="828.87 139.43 818.92 143.49 821.28 139.43 818.92 135.36 828.87 139.43"/><text class="cls-3" transform="translate(454 25.5)">Ser<tspan class="cls-4" x="41.37" y="0">v</tspan><tspan class="cls-5" x="55.5" y="0">er</tspan></text><text class="cls-3" transform="translate(459.19 148.5)">Client</text><text class="cls-3" transform="translate(664.19 206.5)">M<tspan class="cls-12" x="23.73" y="0">Q</tspan><tspan class="cls-13" x="42.81" y="0">T</tspan><tspan class="cls-14" x="60.06" y="0">T</tspan></text><line class="cls-8" x1="616.87" y1="20.02" x2="660.49" y2="125.96"/><polygon class="cls-9" points="665.87 139.02 650.78 123.72 660.09 124.98 665.81 117.52 665.87 139.02"/><line class="cls-10" x1="570.87" y1="140.02" x2="612.9" y2="28.24"/><polygon class="cls-11" points="617.87 15.02 618.48 36.51 612.53 29.23 603.26 30.78 617.87 15.02"/><line class="cls-8" x1="740.87" y1="20.02" x2="784.49" y2="125.96"/><polygon class="cls-9" points="789.87 139.02 774.78 123.72 784.09 124.98 789.81 117.52 789.87 139.02"/><line class="cls-8" x1="658.87" y1="18.02" x2="702.49" y2="123.96"/><polygon class="cls-9" points="707.87 137.02 692.78 121.72 702.09 122.98 707.81 115.52 707.87 137.02"/><line class="cls-8" x1="699.87" y1="17.02" x2="743.49" y2="122.96"/><polygon class="cls-9" points="748.87 136.02 733.78 120.72 743.09 121.98 748.81 114.52 748.87 136.02"/><line class="cls-10" x1="630.87" y1="141.02" x2="672.9" y2="29.24"/><polygon class="cls-11" points="677.87 16.02 678.48 37.51 672.53 30.23 663.26 31.78 677.87 16.02"/></g></g></svg>