<svg xmlns="http://www.w3.org/2000/svg" width="878.09" height="462.43" viewBox="0 0 878.09 462.43"><defs><style>.cls-1{font-size:30px;font-family:PTSans-Regular, PT Sans;}.cls-2,.cls-9{fill:none;}.cls-10,.cls-2,.cls-9{stroke:#000;stroke-miterlimit:10;}.cls-2{stroke-width:2px;}.cls-3{letter-spacing:-0.01em;}.cls-4{letter-spacing:0em;}.cls-5{letter-spacing:-0.04em;}.cls-6{letter-spacing:-0.02em;}.cls-7{letter-spacing:-0.05em;}.cls-8{letter-spacing:-0.02em;}.cls-10{fill:#fff;}</style></defs><title>Asset 1</title><g id="Layer_2" data-name="Layer 2"><g id="Layer_1-2" data-name="Layer 1"><path d="M396.55,0C361,0,335.41,29.58,334.69,61.13a52.5,52.5,0,0,0,15,102.87H490.27c31.06,0,52.71-20.86,52.71-46.86,0-21-14.3-41.45-35.42-46.22-.72-17.23-8.91-30.09-20.23-36.88a40.86,40.86,0,0,0-36.88-2.38A61.09,61.09,0,0,0,396.55,0Zm0,5.86a55.41,55.41,0,0,1,50.06,30.57,2.93,2.93,0,0,0,3.94,1.28,35.46,35.46,0,0,1,33.86,1.37C494.54,45.16,502,56.54,502,73.21a2.93,2.93,0,0,0,2.47,2.84c19.19,3.22,32.67,22.07,32.67,41.09,0,22.79-18.36,41-46.86,41H349.69a46.84,46.84,0,0,1-11.53-92.25,2.93,2.93,0,0,0,2.2-2.93c-.28-29.08,23.21-57.11,56.19-57.11Z"/><text class="cls-1" transform="translate(354.06 100.08)">Application</text><path class="cls-2" d="M301,113c24.2.1,24.17,6.1,48.37,6.2s24.22-5.9,48.42-5.8,24.17,6.1,48.37,6.2,24.23-5.9,48.43-5.8,24.18,6.1,48.38,6.2"/><text class="cls-1" transform="translate(349.74 148.08)">Middl<tspan class="cls-3" x="72.81" y="0">e</tspan><tspan class="cls-4" x="87.72" y="0">ware</tspan></text><path d="M43.45,229.18,32,217.69A8.57,8.57,0,0,1,43.45,205a8.57,8.57,0,0,1,11.49,12.7ZM38,207.06a4.57,4.57,0,0,0-3.23,7.8l8.66,8.66,8.66-8.66a4.57,4.57,0,1,0-6.47-6.47l-2.2,2.2-2.2-2.2A4.55,4.55,0,0,0,38,207.06Z"/><path d="M63.92,189.39c-3.37-4.39-3.64-7.44-4-12.23-.11-1.31-.23-2.79-.44-4.41a2,2,0,0,0-2-1.75h-28a2,2,0,0,0-2,1.75c-.2,1.62-.33,3.11-.44,4.41-.4,4.78-.67,7.84-4,12.23A8,8,0,0,0,17.45,197v36A8,8,0,0,0,23,240.61c3.37,4.39,3.64,7.44,4,12.23.11,1.31.23,2.79.44,4.41a2,2,0,0,0,2,1.75h28a2,2,0,0,0,2-1.75c.2-1.62.33-3.11.44-4.41.4-4.78.67-7.84,4-12.23A8,8,0,0,0,69.45,233V197A8,8,0,0,0,63.92,189.39ZM31,177.5c.07-.81.14-1.63.22-2.5H55.67c.09.87.16,1.69.22,2.5.34,4.06.63,7.48,3,11.5H28.07C30.39,185,30.68,181.56,31,177.5Zm24.87,75c-.07.81-.14,1.63-.22,2.5H31.24c-.09-.87-.16-1.69-.22-2.5-.34-4.06-.63-7.47-2.95-11.5H58.84C56.52,245,56.23,248.44,55.89,252.5ZM65.45,233a4,4,0,0,1-4,4h-36a4,4,0,0,1-4-4V197a4,4,0,0,1,4-4h36a4,4,0,0,1,4,4Z"/><text class="cls-1" transform="translate(0 297.08)"><tspan class="cls-5">P</tspan><tspan class="cls-3" x="15.69" y="0">e</tspan><tspan x="30.6" y="0">ople</tspan></text><path d="M185.7,305.8l1.68-1.71a5.86,5.86,0,0,0-8.51,0l1.68,1.71A3.57,3.57,0,0,1,185.7,305.8Z"/><path d="M190,301.4l1.68-1.71a11.78,11.78,0,0,0-16.91,0l1.68,1.71A9.5,9.5,0,0,1,190,301.4Z"/><path d="M194.21,297.12l1.68-1.71a17.64,17.64,0,0,0-25.42,0l1.68,1.71A15.35,15.35,0,0,1,194.21,297.12Z"/><path d="M194.21,297.12l1.68-1.71a17.64,17.64,0,0,0-25.42,0l1.68,1.71A15.35,15.35,0,0,1,194.21,297.12Z"/><path d="M183.18,309.46h0a1.14,1.14,0,0,1-1.2-1.22h0a1.14,1.14,0,0,1,1.2-1.22h0a1.14,1.14,0,0,1,1.2,1.22h0A1.21,1.21,0,0,1,183.18,309.46Z"/><path d="M248.41,344.54l-.72-1a8.18,8.18,0,0,0-3.72-2.69L223.11,334a2.61,2.61,0,0,1-.6-.37L209.8,322a5.52,5.52,0,0,0-4.2-1.59l-45.8.12a7.55,7.55,0,0,0-6.35,3.42l-5.87,8.55a21.34,21.34,0,0,0-3.72,11.37h0a2.3,2.3,0,0,1-.24.86l-1.32,2.32a1.9,1.9,0,0,0,.12,2l.84.86a1.88,1.88,0,0,1,.12,2.08l-1.08,1.71a1.71,1.71,0,0,0,.24,2.2h0a2.51,2.51,0,0,0,.72.49l3.6.61h4.8a12,12,0,1,1,24,0v.12h36a12,12,0,1,1,24,0h12a2.49,2.49,0,0,0,1.8-2L250,350A8.92,8.92,0,0,0,248.41,344.54Z"/><ellipse cx="163.52" cy="357.12" rx="9.59" ry="9.78"/><ellipse cx="223.47" cy="357.12" rx="9.59" ry="9.78"/><text class="cls-1" transform="translate(160.87 403.08)"><tspan class="cls-6">C</tspan><tspan x="16.62" y="0">ars</tspan></text><polygon points="849.07 192.53 849.07 192.69 849.07 192.69 849.07 205.22 855.5 205.22 855.5 205.22 855.5 205.22 855.5 192.53 849.07 192.53"/><polygon points="849.07 212.46 849.07 212.46 849.07 224.99 849.07 224.99 849.07 224.99 855.5 224.99 855.5 212.46 849.07 212.46"/><rect x="849.07" y="232.23" width="6.43" height="12.52"/><polygon points="842.65 192.53 836.22 192.53 836.22 205.05 836.22 205.05 836.22 205.22 842.65 205.22 842.65 192.69 842.65 192.69 842.65 192.53"/><path d="M836.22,212.46h0c-.16,4.12-.16,8.07,0,12V225h6.59V212.46Z"/><rect x="836.22" y="232.23" width="6.43" height="12.52"/><polygon points="810.19 180.01 810.19 180.17 810.19 180.17 810.19 190.39 816.62 190.39 816.62 190.39 816.62 190.39 816.62 180.01 810.19 180.01"/><polygon points="810.19 195.82 810.19 195.82 810.19 206.04 810.19 206.04 810.19 206.2 816.62 206.2 816.62 195.82 810.19 195.82"/><rect x="810.19" y="211.48" width="6.43" height="10.38"/><polygon points="797.34 190.39 803.76 190.39 803.76 180.17 803.76 180.17 803.76 180.01 797.34 180.01 797.34 190.39 797.34 190.39"/><path d="M797.34,205.87v.33h6.59V195.82h-6.59v9.89C797.18,205.71,797.34,205.71,797.34,205.87Z"/><rect x="797.34" y="211.48" width="6.43" height="10.38"/><polygon points="784.49 190.39 791.08 190.39 791.08 180.17 790.91 180.17 790.91 180.01 784.49 180.01 784.49 190.39 784.49 190.39"/><path d="M790.09,206.2c.33,0,.49,0,.66-.16h.33V195.66h-6.43V206C786.47,206.2,788.28,206.2,790.09,206.2Z"/><rect x="784.49" y="211.48" width="6.43" height="10.38"/><rect x="785.15" y="226.8" width="12.69" height="18.62"/><rect x="803.27" y="226.8" width="12.69" height="18.45"/><path d="M867.52,248.87V192.69c0-6.1-2.31-9.56-7.41-11-1.32-4.78-4.94-7.25-10.38-7.58h-4.45v-8.73a3.13,3.13,0,0,0-6.26,0v8.73h-7.25a7,7,0,0,0-5.93-5.6H778.39A6.27,6.27,0,0,0,773,174.9l.16,7.91a16.66,16.66,0,0,0-3,3c-1.65,2.64-1.48,5.44-1.32,7.74v55.36h-2.31v6.43h103.3v-6.43Zm-6.43-56.18v56.18H831.61V180.5H849.4c3.3.16,4.45,1.15,4.78,4.12l.33,2.31,2.31.49C860.44,188.08,861.1,188.9,861.1,192.69Zm-86.33.82v-.66c0-1.32-.16-2.8.33-3.62.33-.66,1-1,1.65-1.48,1.15-.82,2.31-1.81,2.31-3.62l-.16-9.23H825c.16,0,.16.16.16.33V249H774.77V193.52Z"/><text class="cls-1" transform="translate(758.27 297.08)">Buildings</text><path d="M414,405.25h10a1.25,1.25,0,0,0,1.25-1.25V394a1.25,1.25,0,0,0-1.25-1.25H414a1.25,1.25,0,0,0-1.25,1.25v10A1.25,1.25,0,0,0,414,405.25Zm1.25-10h7.5v7.5h-7.5Z"/><path d="M414,390.25h10a1.25,1.25,0,0,0,1.25-1.25V379a1.25,1.25,0,0,0-1.25-1.25H414a1.25,1.25,0,0,0-1.25,1.25v10A1.25,1.25,0,0,0,414,390.25Zm1.25-10h7.5v7.5h-7.5Z"/><path d="M399,405.25h10a1.25,1.25,0,0,0,1.25-1.25V394a1.25,1.25,0,0,0-1.25-1.25H399a1.25,1.25,0,0,0-1.25,1.25v10A1.25,1.25,0,0,0,399,405.25Zm1.25-10h7.5v7.5h-7.5Z"/><path d="M399,390.25h10a1.25,1.25,0,0,0,1.25-1.25V379a1.25,1.25,0,0,0-1.25-1.25H399a1.25,1.25,0,0,0-1.25,1.25v10A1.25,1.25,0,0,0,399,390.25Zm1.25-10h7.5v7.5h-7.5Z"/><path d="M444,405.25h10a1.25,1.25,0,0,0,1.25-1.25V394a1.25,1.25,0,0,0-1.25-1.25H444a1.25,1.25,0,0,0-1.25,1.25v10A1.25,1.25,0,0,0,444,405.25Zm1.25-10h7.5v7.5h-7.5Z"/><path d="M444,390.25h10a1.25,1.25,0,0,0,1.25-1.25V379a1.25,1.25,0,0,0-1.25-1.25H444a1.25,1.25,0,0,0-1.25,1.25v10A1.25,1.25,0,0,0,444,390.25Zm1.25-10h7.5v7.5h-7.5Z"/><path d="M429,405.25h10a1.25,1.25,0,0,0,1.25-1.25V394a1.25,1.25,0,0,0-1.25-1.25H429a1.25,1.25,0,0,0-1.25,1.25v10A1.25,1.25,0,0,0,429,405.25Zm1.25-10h7.5v7.5h-7.5Z"/><path d="M429,390.25h10a1.25,1.25,0,0,0,1.25-1.25V379a1.25,1.25,0,0,0-1.25-1.25H429a1.25,1.25,0,0,0-1.25,1.25v10A1.25,1.25,0,0,0,429,390.25Zm1.25-10h7.5v7.5h-7.5Z"/><path d="M462.49,346.69a2.5,2.5,0,0,0-2.72.54l-18.23,18.23V349a2.5,2.5,0,0,0-4.27-1.77L419,365.47V349a2.5,2.5,0,0,0-4.27-1.77L396,366l-2-19.75a2.5,2.5,0,0,0-2.49-2.25H379a2.5,2.5,0,0,0-2.49,2.25l-2.5,25s0,.08,0,.12,0,.08,0,.13v40a2.5,2.5,0,0,0,2.5,2.5h85a2.5,2.5,0,0,0,2.5-2.5V349A2.5,2.5,0,0,0,462.49,346.69ZM381.3,349h8l.25,2.5H381Zm-.5,5h9l.25,2.5h-9.48Zm-.5,5h10l.25,2.5H380Zm-.5,5h11l.25,2.5H379.55Zm-.5,5h12l.25,2.5H379Zm12.24,40H379V374h12.5Zm45-54V371.5H420.07ZM414,355V371.5H397.57Zm45,54H394V374h65Zm0-37.5H442.57L459,355Z"/><path d="M381.54,340.46a1.25,1.25,0,0,0,1.24,1.15h.1a1.25,1.25,0,0,0,1.14-1.35c-.06-.7.19-1,.75-1.69a4.37,4.37,0,0,0-.56-6.76c-.66-.56-1-.84-1-1.55s.19-1,.75-1.69a4.47,4.47,0,0,0,1.33-3.51,1.25,1.25,0,1,0-2.49.21c.06.71-.19,1-.75,1.69a4.37,4.37,0,0,0,.56,6.76c.66.56,1,.84,1,1.55s-.19,1-.75,1.69A4.48,4.48,0,0,0,381.54,340.46Z"/><path d="M390.78,330.87a3.82,3.82,0,0,0,2-2.87,1.25,1.25,0,1,0-2.49-.25c0,.43-.26.61-.91,1.05a3.59,3.59,0,0,0-.61,6.07c.55.57.73.79.69,1.21s-.26.6-.91,1a3.82,3.82,0,0,0-2,2.87,1.25,1.25,0,0,0,1.12,1.37h.13a1.25,1.25,0,0,0,1.24-1.12c0-.43.26-.6.91-1a3.59,3.59,0,0,0,.61-6.07c-.55-.57-.73-.78-.69-1.21S390.12,331.31,390.78,330.87Z"/><text class="cls-1" transform="translate(366.95 455.08)">Industr<tspan class="cls-5" x="90.45" y="0">y</tspan></text><path d="M613.6,291a20.9,20.9,0,0,1,8.91,2.65c4.9,2.84,8.06,8.47,6.89,15.5l3.94,2.62v-7.83a2.59,2.59,0,1,1,5.18,0v20.79l3.94-2.62c-1.17-7,2-12.66,6.89-15.5a20.9,20.9,0,0,1,8.91-2.65,25.61,25.61,0,0,1,9.56,1.13,2.67,2.67,0,0,1,1.81,2.51c-.08,6.49-2.62,13-7.21,17.07-4.25,3.79-10.64,5-17,1.65l-6.91,4.62v5h13a6,6,0,0,1,2.21,11.67l-2,15.5s0,0,0,0a4.51,4.51,0,0,1-4.54,3.92H624.7a4.51,4.51,0,0,1-4.54-3.92s0,0,0,0l-2-15.5a6,6,0,0,1,2.21-11.67h13V318l-6.91-4.62c-6.35,3.39-12.73,2.14-17-1.65-4.59-4.09-7.13-10.58-7.21-17.07a2.67,2.67,0,0,1,1.81-2.51A30.1,30.1,0,0,1,613.6,291Zm-5.94,5.64c.54,4.42,2.48,8.75,5.24,11.21a8.18,8.18,0,0,0,8.32,2l-3.13-2.08a2.59,2.59,0,0,1,1.49-4.75,2.61,2.61,0,0,1,1.38.46l3.54,2.35a8.22,8.22,0,0,0-4.56-7.72,16,16,0,0,0-6.72-1.89A21.46,21.46,0,0,0,607.66,296.64Zm51,12.56a16,16,0,0,0-6.72,1.89,8.22,8.22,0,0,0-4.56,7.72l3.54-2.35a2.62,2.62,0,0,1,1.73-.46,2.59,2.59,0,0,1,1.13,4.75l-3.13,2.08a8.18,8.18,0,0,0,8.32-2c2.76-2.46,4.7-6.79,5.24-11.21A22.14,22.14,0,0,0,658.67,309.19Zm-7.18,31.89H620.38a.86.86,0,1,0,0,1.73h31.11a.86.86,0,1,0,0-1.73ZM648.43,348h-25l1.81,13.83h21.39Z"/><text class="cls-1" transform="translate(572.21 403.08)"><tspan class="cls-7">R</tspan><tspan x="16.41" y="0">esour</tspan><tspan class="cls-8" x="86.73" y="0">c</tspan><tspan x="99.57" y="0">es</tspan></text><line class="cls-9" x1="112.98" y1="207" x2="301.98" y2="135"/><circle class="cls-10" cx="103.98" cy="210" r="9.5"/><circle class="cls-10" cx="250.98" cy="278" r="9.5"/><line class="cls-9" x1="256.48" y1="269.5" x2="349.48" y2="163.5"/><circle class="cls-10" cx="419.98" cy="319" r="9.5"/><line class="cls-9" x1="420.48" y1="309" x2="420.48" y2="161.5"/><circle class="cls-10" cx="597.98" cy="277" r="9.5"/><line class="cls-9" x1="593.48" y1="269.5" x2="500.48" y2="163.5"/><line class="cls-9" x1="728.98" y1="202" x2="539.98" y2="130"/><circle class="cls-10" cx="737.98" cy="205" r="9.5"/></g></g></svg>