<svg xmlns="http://www.w3.org/2000/svg" width="1109.01" height="129.56" viewBox="0 0 1109.01 129.56"><defs><style>.cls-1{font-size:30.22px;font-family:PTSans-Regular, PT Sans;}.cls-2{letter-spacing:-0.02em;}.cls-3{letter-spacing:0em;}.cls-4{letter-spacing:-0.02em;}.cls-5,.cls-9{fill:none;stroke:#000;stroke-miterlimit:10;}.cls-5{stroke-width:7px;}.cls-6{letter-spacing:-0.01em;}.cls-7{letter-spacing:-0.03em;}.cls-8{letter-spacing:-0.01em;}</style></defs><title>Asset 3</title><g id="Layer_2" data-name="Layer 2"><g id="Layer_1-2" data-name="Layer 1"><text class="cls-1" transform="translate(42.02 73.65)">M2M D<tspan class="cls-2" x="92.1" y="0">e</tspan><tspan class="cls-3" x="106.78" y="0">vi</tspan><tspan class="cls-4" x="129.44" y="0">c</tspan><tspan x="142.37" y="0">e</tspan></text><rect class="cls-5" x="3.5" y="27.68" width="233" height="74.2"/><path d="M485.66,47.84c0-20.17-14.44-36.55-32.25-36.55-10.19,0-19.24,5.37-25.15,13.72-6.8-14.85-20.55-25-36.42-25C377.76,0,365.37,8,358,20.12a31.76,31.76,0,0,0-50.81,32.35,18.69,18.69,0,0,0-4.1-.47c-12.12,0-22,11.57-22,25.85s9.83,25.85,22,25.85a20.33,20.33,0,0,0,15.42-7.45c6.14,16.28,20.18,27.67,36.53,27.67,11.29,0,21.47-5.46,28.72-14.19,3.52,11.43,15.1,19.83,28.9,19.83,11.33,0,21.17-5.65,26.28-14A25.79,25.79,0,0,0,456,122.14c13.07,0,24-10,26.63-23.42a19.23,19.23,0,0,0,12.72,5c12,0,21.64-11.63,21.64-26s-9.69-26-21.64-26A18.77,18.77,0,0,0,485,54.84,41.64,41.64,0,0,0,485.66,47.84Zm3.13,12.7a11.88,11.88,0,0,1,6.57-2c8.16,0,14.8,8.6,14.8,19.18s-6.64,19.18-14.8,19.18a12.47,12.47,0,0,1-8.2-3.28l-8.94-7.84-2.3,11.63c-2.06,10.38-10.43,17.92-19.91,17.92a18.87,18.87,0,0,1-12.55-4.87l-6.12-5.36L433.09,112c-4.06,6.61-11.89,10.72-20.44,10.72-10.44,0-19.64-6.17-22.35-15l-3.72-12.1-8.1,9.75c-6.28,7.56-14.6,11.72-23.45,11.72-13,0-24.8-9.13-30.13-23.25L320.84,83l-7.53,8.77a13.51,13.51,0,0,1-10.21,5.07c-8.33,0-15.11-8.53-15.11-19s6.77-19,15.11-19a11.86,11.86,0,0,1,2.6.3l10.81,2.42-2.66-10.7a24.7,24.7,0,0,1-.74-6A25,25,0,0,1,353.7,25.43l6.1,4.87,4-6.66c6.41-10.54,16.87-16.83,28-16.83,12.68,0,24.25,8.05,30.19,21l5,10.81,6.87-9.72c4.87-6.87,12-10.83,19.55-10.83,14,0,25.4,13.34,25.4,29.73a34.58,34.58,0,0,1-.51,5.85l-2.63,15.39Z"/><text class="cls-1" transform="translate(344.02 77.65)">Net<tspan class="cls-6" x="45.93" y="0">w</tspan><tspan x="67.8" y="0">or</tspan><tspan class="cls-7" x="94.27" y="0">k</tspan></text><text class="cls-1" transform="translate(600.43 73.65)">Middl<tspan class="cls-8" x="73.33" y="0">e</tspan><tspan x="88.35" y="0">ware</tspan></text><rect class="cls-5" x="559.51" y="27.68" width="233" height="74.2"/><text class="cls-1" transform="translate(915.53 73.65)">Application</text><rect class="cls-5" x="872.51" y="27.68" width="233" height="74.2"/><line class="cls-9" x1="237.5" y1="64.78" x2="287.5" y2="64.78"/><line class="cls-9" x1="511" y1="64.78" x2="561" y2="64.78"/><line class="cls-9" x1="793" y1="64.78" x2="869.5" y2="64.78"/></g></g></svg>