<?xml version="1.0" encoding="UTF-8" standalone="no"?>
<!-- Created with Inkscape (http://www.inkscape.org/) -->

<svg
   xmlns:dc="http://purl.org/dc/elements/1.1/"
   xmlns:cc="http://creativecommons.org/ns#"
   xmlns:rdf="http://www.w3.org/1999/02/22-rdf-syntax-ns#"
   xmlns:svg="http://www.w3.org/2000/svg"
   xmlns="http://www.w3.org/2000/svg"
   xmlns:sodipodi="http://sodipodi.sourceforge.net/DTD/sodipodi-0.dtd"
   xmlns:inkscape="http://www.inkscape.org/namespaces/inkscape"
   id="svg3464"
   version="1.1"
   inkscape:version="0.91 r13725"
   xml:space="preserve"
   width="70.270042"
   height="53.375088"
   viewBox="0 0 70.27004 53.375089"
   sodipodi:docname="factory.svg"><metadata
     id="metadata3470"><rdf:RDF><cc:Work
         rdf:about=""><dc:format>image/svg+xml</dc:format><dc:type
           rdf:resource="http://purl.org/dc/dcmitype/StillImage" /><dc:title></dc:title></cc:Work></rdf:RDF></metadata><defs
     id="defs3468"><clipPath
       clipPathUnits="userSpaceOnUse"
       id="clipPath3556"><path
         d="m 0,1133.147 1438.388,0 L 1438.388,0 0,0 0,1133.147 Z"
         id="path3558"
         inkscape:connector-curvature="0" /></clipPath><clipPath
       clipPathUnits="userSpaceOnUse"
       id="clipPath3564"><path
         d="m 1054.42,893.277 100.46,0 0,-15.172 -100.46,0 0,15.172 z"
         id="path3566"
         inkscape:connector-curvature="0" /></clipPath><clipPath
       clipPathUnits="userSpaceOnUse"
       id="clipPath3684"><path
         d="m 0,1133.147 1438.388,0 L 1438.388,0 0,0 0,1133.147 Z"
         id="path3686"
         inkscape:connector-curvature="0" /></clipPath><clipPath
       clipPathUnits="userSpaceOnUse"
       id="clipPath3692"><path
         d="m 994.422,115.119 246.598,0 0,-45.9718 -246.598,0 0,45.9718 z"
         id="path3694"
         inkscape:connector-curvature="0" /></clipPath><clipPath
       clipPathUnits="userSpaceOnUse"
       id="clipPath3716"><path
         d="m 0,1133.147 1438.388,0 L 1438.388,0 0,0 0,1133.147 Z"
         id="path3718"
         inkscape:connector-curvature="0" /></clipPath></defs><sodipodi:namedview
     pagecolor="#ffffff"
     bordercolor="#666666"
     borderopacity="1"
     objecttolerance="10"
     gridtolerance="10"
     guidetolerance="10"
     inkscape:pageopacity="0"
     inkscape:pageshadow="2"
     inkscape:window-width="1492"
     inkscape:window-height="1005"
     id="namedview3466"
     showgrid="false"
     inkscape:zoom="5.33"
     inkscape:cx="21.584514"
     inkscape:cy="7.4551906"
     inkscape:window-x="20"
     inkscape:window-y="151"
     inkscape:window-maximized="0"
     inkscape:current-layer="g3472"
     fit-margin-top="0"
     fit-margin-left="0"
     fit-margin-right="0"
     fit-margin-bottom="0" /><g
     id="g3472"
     inkscape:groupmode="layer"
     inkscape:label="machinomy"
     transform="matrix(1.25,0,0,-1.25,-1052.8756,950.54808)"><g
       id="g3769"><g
         transform="translate(862.8853,736.16219)"
         id="g3732"><path
           inkscape:connector-curvature="0"
           id="path3734"
           style="fill:#231f20;fill-opacity:1;fill-rule:nonzero;stroke:none"
           d="m 0,0 c -2.629,0 -5.259,-0.014 -7.888,0.005 -1.953,0.013 -3.906,0.043 -5.858,0.115 -1.266,0.046 -2.53,0.175 -3.793,0.278 -0.168,0.014 -0.334,0.085 -0.495,0.146 -0.48,0.182 -0.605,0.138 -0.738,-0.365 -0.075,-0.285 -0.093,-0.589 -0.106,-0.885 -0.069,-1.571 -0.152,-3.143 -0.175,-4.715 -0.006,-0.415 0.191,-0.831 0.28,-1.25 0.042,-0.199 0.109,-0.422 0.059,-0.604 -0.247,-0.899 0.081,-1.774 0.073,-2.661 -0.005,-0.567 -0.005,-1.134 0.023,-1.7 0.016,-0.34 0.088,-0.678 0.138,-1.015 0.017,-0.109 0.057,-0.216 0.064,-0.325 0.065,-0.968 0.192,-1.939 0.156,-2.904 -0.017,-0.458 -0.317,-0.923 -0.562,-1.343 -0.052,-0.089 -0.428,-0.033 -0.637,0.023 -0.333,0.09 -0.427,0.341 -0.423,0.691 0.012,1.149 0.041,2.301 -0.041,3.445 -0.094,1.329 -0.328,2.647 -0.448,3.974 -0.111,1.238 -0.195,2.483 -0.211,3.725 -0.016,1.302 0.039,2.607 0.107,3.909 0.048,0.941 0.155,1.879 0.259,2.816 0.087,0.785 0.689,1.342 1.461,1.275 0.679,-0.059 1.348,-0.243 2.023,-0.357 0.308,-0.051 0.621,-0.071 0.933,-0.094 1.485,-0.112 2.97,-0.28 4.458,-0.316 2.85,-0.067 5.702,-0.067 8.553,-0.075 0.959,-0.002 1.919,0.049 2.879,0.092 0.352,0.016 0.707,0.057 1.051,0.13 0.376,0.08 0.618,0.253 0.63,0.732 0.016,0.588 0.234,1.169 0.258,1.757 0.063,1.518 0.112,3.039 0.073,4.556 -0.019,0.72 -0.26,1.433 -0.385,2.152 -0.117,0.676 -0.284,1.353 -0.306,2.034 -0.058,1.873 -0.057,3.748 -0.067,5.623 -0.005,0.8 0.357,1.178 1.15,1.229 0.547,0.035 1.048,0.164 1.573,0.372 1.027,0.407 1.979,0.113 2.653,-1.177 0.173,-0.331 0.348,-0.662 0.528,-0.99 0.515,-0.946 0.815,-1.942 0.83,-3.032 0.005,-0.393 0.182,-0.784 0.284,-1.175 0.012,-0.044 0.059,-0.079 0.069,-0.122 0.142,-0.681 0.284,-1.361 0.42,-2.043 C 9.001,11.184 9.151,10.436 9.285,9.686 9.373,9.197 9.431,8.701 9.508,8.21 9.586,7.716 9.65,7.218 9.758,6.731 9.901,6.092 10.093,5.463 10.24,4.825 10.365,4.281 10.576,3.72 10.536,3.182 c -0.072,-0.95 1.16,-1.806 1.946,-1.728 0.576,0.056 1.163,0.068 1.738,0.022 0.19,-0.016 0.454,-0.24 0.523,-0.427 0.18,-0.494 0.337,-1.014 0.385,-1.534 0.094,-1.018 0.176,-2.046 0.138,-3.066 -0.048,-1.296 -0.242,-2.587 -0.326,-3.883 -0.037,-0.574 0.035,-1.156 0.069,-1.733 0.013,-0.235 0.083,-0.467 0.086,-0.7 0.013,-1.417 0.005,-2.834 0.021,-4.251 0.012,-1.07 0.04,-2.14 0.079,-3.209 0.021,-0.582 -0.174,-0.967 -0.699,-1.093 -0.139,-0.033 -0.441,0.156 -0.489,0.302 -0.125,0.381 -0.199,0.795 -0.208,1.197 -0.029,1.336 0.015,2.675 -0.035,4.01 -0.056,1.507 -0.215,3.011 -0.266,4.519 -0.027,0.813 0.109,1.629 0.114,2.445 0.006,1.207 -0.028,2.415 -0.068,3.622 -0.014,0.423 -0.11,0.843 -0.148,1.266 -0.041,0.448 -0.251,0.65 -0.714,0.581 C 11.7,-0.623 10.776,-0.331 10.002,0.189 9.401,0.593 8.878,1.234 8.898,2.054 8.931,3.402 8.489,4.655 8.233,5.946 8.049,6.869 7.887,7.781 7.438,8.636 7.237,9.017 7.207,9.52 7.204,9.969 7.195,11.281 7.008,12.544 6.581,13.795 6.337,14.51 6.397,15.326 6.186,16.057 5.972,16.795 5.634,17.509 5.271,18.191 4.997,18.705 4.446,18.512 3.989,18.503 3.898,18.501 3.809,18.447 3.716,18.432 2.805,18.279 2.802,18.28 2.805,17.385 2.808,16.677 2.785,15.967 2.837,15.262 2.883,14.64 3.056,14.028 3.103,13.406 3.242,11.585 3.34,9.762 3.469,7.94 3.503,7.458 3.5,6.945 3.67,6.506 3.973,5.72 3.624,4.983 3.626,4.224 3.629,3.174 3.507,2.124 3.441,1.074 3.412,0.624 2.975,0.142 2.503,0.127 1.67,0.101 0.834,0.12 0,0.12 L 0,0 Z" /></g><g
         transform="translate(880.7444,756.28169)"
         id="g3736"><path
           inkscape:connector-curvature="0"
           id="path3738"
           style="fill:#231f20;fill-opacity:1;fill-rule:nonzero;stroke:none"
           d="m 0,0 c -0.343,0.03 -0.686,0.056 -1.029,0.091 -0.09,0.01 -0.209,0.022 -0.261,0.08 -0.758,0.841 -1.785,0.83 -2.785,0.881 -0.58,0.03 -1.165,-0.015 -1.744,0.024 -0.197,0.013 -0.551,0.191 -0.546,0.276 0.021,0.335 0.059,0.849 0.267,0.958 0.601,0.312 1.278,0.502 1.945,0.655 0.317,0.073 0.693,0.003 1.017,-0.091 0.648,-0.187 1.266,-0.483 1.918,-0.646 1.189,-0.297 2.349,-0.351 3.381,0.534 1.13,0.969 2.371,1.2 3.789,0.566 0.669,-0.298 1.236,-0.674 1.797,-1.132 1.048,-0.856 2.27,-0.855 3.322,0.032 0.469,0.396 1.028,0.7 1.44,1.144 1.183,1.277 2.619,0.615 3.973,0.6 0.429,-0.408 0.93,-0.769 1.252,-1.249 C 17.859,2.541 17.644,2.031 17.452,1.766 17.268,1.514 16.991,1.701 16.755,1.877 15.717,2.65 14.014,2.648 13.006,1.857 12.305,1.307 11.671,0.667 10.946,0.154 10.607,-0.085 10.126,-0.212 9.704,-0.224 8.45,-0.261 7.39,0.194 6.535,1.155 6.314,1.404 5.9,1.496 5.561,1.62 5.242,1.736 4.906,1.813 4.573,1.881 4.411,1.915 4.229,1.92 4.07,1.881 3.75,1.803 3.439,1.687 3.125,1.585 3.05,1.561 2.943,1.551 2.909,1.497 2.497,0.841 1.637,0.872 1.154,0.361 0.808,-0.004 0.426,-0.009 0,0" /></g></g></g></svg>