<?xml version="1.0" encoding="UTF-8" standalone="no"?>
<!-- Created with Inkscape (http://www.inkscape.org/) -->

<svg
   xmlns:dc="http://purl.org/dc/elements/1.1/"
   xmlns:cc="http://creativecommons.org/ns#"
   xmlns:rdf="http://www.w3.org/1999/02/22-rdf-syntax-ns#"
   xmlns:svg="http://www.w3.org/2000/svg"
   xmlns="http://www.w3.org/2000/svg"
   xmlns:sodipodi="http://sodipodi.sourceforge.net/DTD/sodipodi-0.dtd"
   xmlns:inkscape="http://www.inkscape.org/namespaces/inkscape"
   id="svg3464"
   version="1.1"
   inkscape:version="0.91 r13725"
   xml:space="preserve"
   width="15.084159"
   height="37.696991"
   viewBox="0 0 15.084158 37.696992"
   sodipodi:docname="human.svg"><metadata
     id="metadata3470"><rdf:RDF><cc:Work
         rdf:about=""><dc:format>image/svg+xml</dc:format><dc:type
           rdf:resource="http://purl.org/dc/dcmitype/StillImage" /><dc:title></dc:title></cc:Work></rdf:RDF></metadata><defs
     id="defs3468"><clipPath
       clipPathUnits="userSpaceOnUse"
       id="clipPath3556"><path
         d="m 0,1133.147 1438.388,0 L 1438.388,0 0,0 0,1133.147 Z"
         id="path3558"
         inkscape:connector-curvature="0" /></clipPath><clipPath
       clipPathUnits="userSpaceOnUse"
       id="clipPath3564"><path
         d="m 1054.42,893.277 100.46,0 0,-15.172 -100.46,0 0,15.172 z"
         id="path3566"
         inkscape:connector-curvature="0" /></clipPath><clipPath
       clipPathUnits="userSpaceOnUse"
       id="clipPath3684"><path
         d="m 0,1133.147 1438.388,0 L 1438.388,0 0,0 0,1133.147 Z"
         id="path3686"
         inkscape:connector-curvature="0" /></clipPath><clipPath
       clipPathUnits="userSpaceOnUse"
       id="clipPath3692"><path
         d="m 994.422,115.119 246.598,0 0,-45.9718 -246.598,0 0,45.9718 z"
         id="path3694"
         inkscape:connector-curvature="0" /></clipPath><clipPath
       clipPathUnits="userSpaceOnUse"
       id="clipPath3716"><path
         d="m 0,1133.147 1438.388,0 L 1438.388,0 0,0 0,1133.147 Z"
         id="path3718"
         inkscape:connector-curvature="0" /></clipPath></defs><sodipodi:namedview
     pagecolor="#ffffff"
     bordercolor="#666666"
     borderopacity="1"
     objecttolerance="10"
     gridtolerance="10"
     guidetolerance="10"
     inkscape:pageopacity="0"
     inkscape:pageshadow="2"
     inkscape:window-width="1492"
     inkscape:window-height="1005"
     id="namedview3466"
     showgrid="false"
     inkscape:zoom="5.33"
     inkscape:cx="-7.0414226"
     inkscape:cy="24.664259"
     inkscape:window-x="20"
     inkscape:window-y="151"
     inkscape:window-maximized="0"
     inkscape:current-layer="g3472"
     fit-margin-top="0"
     fit-margin-left="0"
     fit-margin-right="0"
     fit-margin-bottom="0" /><g
     id="g3472"
     inkscape:groupmode="layer"
     inkscape:label="machinomy"
     transform="matrix(1.25,0,0,-1.25,-741.00054,931.82368)"><g
       id="g3728"
       transform="translate(595.8616,741.36589)"><path
         d="m 0,0 c 0,-0.118 0.005,-0.183 -0.001,-0.247 -0.053,-0.568 0.168,-0.974 0.651,-1.295 0.251,-0.168 0.414,-0.466 0.618,-0.704 0.034,-0.04 0.065,-0.088 0.108,-0.113 0.306,-0.18 0.612,-0.335 0.992,-0.315 0.609,0.032 1.198,0.072 1.798,0.269 0.924,0.303 1.359,0.952 1.587,1.812 0.053,0.201 0.074,0.43 0.035,0.632 C 5.667,0.667 5.385,1.231 5.026,1.758 4.925,1.906 4.865,2.093 4.739,2.213 4.111,2.813 3.326,2.868 2.52,2.796 2.269,2.773 1.981,2.742 1.784,2.607 1.38,2.333 1.034,1.976 0.651,1.669 0.092,1.22 -0.174,0.668 0,0 m 2.249,-6.352 c 0,0.63 0.002,1.261 -10e-4,1.891 -0.001,0.268 -0.253,0.584 -0.51,0.608 -0.676,0.062 -1.185,0.392 -1.565,0.941 -0.333,0.481 -0.693,0.947 -0.985,1.453 -0.183,0.317 -0.347,0.69 -0.364,1.045 -0.024,0.48 0.003,1.007 0.185,1.44 0.255,0.61 0.6,1.218 1.042,1.704 C 0.458,3.177 1.046,3.459 1.552,3.817 1.956,4.103 2.414,4.118 2.879,4.075 3.271,4.038 3.674,4.03 4.049,3.927 4.474,3.811 4.909,3.658 5.274,3.42 5.575,3.224 5.788,2.888 6.026,2.602 6.655,1.846 6.862,0.905 6.979,-0.016 7.067,-0.707 6.847,-1.42 6.383,-2.004 6.219,-2.211 6.059,-2.422 5.909,-2.639 5.617,-3.063 5.196,-3.311 4.732,-3.482 4.412,-3.6 4.075,-3.678 3.739,-3.745 3.527,-3.787 3.453,-3.897 3.445,-4.095 3.43,-4.524 3.421,-4.953 3.387,-5.38 3.357,-5.753 3.308,-6.126 3.245,-6.495 c -0.029,-0.17 0.012,-0.25 0.179,-0.257 0.149,-0.006 0.307,-0.034 0.447,0.002 0.94,0.242 1.875,0.503 2.814,0.75 0.559,0.146 1.117,0.302 1.684,0.408 C 8.81,-5.51 9.055,-5.79 8.998,-6.237 8.933,-6.742 8.793,-6.915 8.304,-7.039 7.578,-7.222 6.844,-7.374 6.122,-7.571 5.352,-7.783 4.589,-8.025 3.827,-8.267 3.534,-8.36 3.428,-8.615 3.452,-8.969 c 0.081,-1.184 0.146,-2.369 0.232,-3.553 0.013,-0.183 0.068,-0.383 0.165,-0.536 0.36,-0.566 0.714,-1.139 1.128,-1.665 0.637,-0.811 0.828,-1.817 1.233,-2.726 0.396,-0.889 0.65,-1.843 0.947,-2.775 0.109,-0.343 0.147,-0.708 0.244,-1.055 0.067,-0.239 0.183,-0.464 0.272,-0.697 0.165,-0.435 0.003,-0.775 -0.275,-1.116 -0.212,-0.26 -0.447,-0.278 -0.672,-0.124 -0.138,0.095 -0.245,0.303 -0.276,0.476 -0.115,0.64 -0.169,1.292 -0.292,1.929 -0.081,0.418 -0.23,0.825 -0.371,1.228 -0.144,0.411 -0.313,0.813 -0.476,1.217 -0.264,0.652 -0.538,1.3 -0.796,1.955 -0.16,0.403 -0.22,0.851 -0.549,1.177 -0.083,0.081 -0.135,0.194 -0.218,0.275 -0.253,0.249 -0.59,0.161 -0.71,-0.173 -0.065,-0.179 -0.153,-0.35 -0.222,-0.529 -0.182,-0.475 -0.36,-0.951 -0.539,-1.427 C 2.27,-17.108 2.275,-17.139 2.262,-17.15 1.651,-17.661 1.915,-18.527 1.475,-19.102 1.108,-19.582 1.1,-20.18 0.893,-20.711 0.81,-20.925 0.61,-21.095 0.541,-21.31 c -0.123,-0.386 -0.192,-0.789 -0.276,-1.187 -0.128,-0.606 -0.262,-1.211 -0.37,-1.82 -0.043,-0.249 -0.028,-0.51 -0.032,-0.765 -0.004,-0.316 -0.015,-0.635 -0.294,-0.844 -0.108,-0.08 -0.287,-0.168 -0.386,-0.129 -0.149,0.058 -0.317,0.203 -0.367,0.35 -0.066,0.193 -0.054,0.427 -0.027,0.637 0.077,0.595 0.09,1.22 0.297,1.769 0.212,0.566 0.315,1.147 0.477,1.718 0.233,0.817 0.496,1.627 0.77,2.432 0.199,0.583 0.441,1.152 0.656,1.73 0.111,0.298 0.186,0.611 0.307,0.906 0.332,0.812 0.692,1.613 1.012,2.43 0.103,0.262 0.17,0.559 0.166,0.839 -0.013,0.877 -0.061,1.753 -0.107,2.629 -0.025,0.479 -0.08,0.958 -0.111,1.437 -0.018,0.287 -0.213,0.449 -0.649,0.381 -0.547,-0.085 -1.079,-0.264 -1.619,-0.393 -0.34,-0.081 -0.685,-0.139 -1.024,-0.219 -0.425,-0.099 -0.843,-0.256 -1.272,-0.3 -0.237,-0.024 -0.522,0.091 -0.723,0.232 -0.075,0.053 0.008,0.363 0.053,0.548 0.178,0.733 0.832,0.663 1.364,0.787 0.517,0.12 1.041,0.213 1.559,0.33 0.406,0.091 0.812,0.189 1.21,0.307 0.306,0.091 0.61,0.2 0.895,0.341 0.1,0.049 0.175,0.208 0.202,0.331 0.035,0.153 0.009,0.32 0.009,0.481 l -0.012,0 z"
         style="fill:#231f20;fill-opacity:1;fill-rule:nonzero;stroke:none"
         id="path3730"
         inkscape:connector-curvature="0" /></g></g></svg>