<?xml version="1.0" encoding="UTF-8" standalone="no"?>
<!-- Created with Inkscape (http://www.inkscape.org/) -->

<svg
   xmlns:dc="http://purl.org/dc/elements/1.1/"
   xmlns:cc="http://creativecommons.org/ns#"
   xmlns:rdf="http://www.w3.org/1999/02/22-rdf-syntax-ns#"
   xmlns:svg="http://www.w3.org/2000/svg"
   xmlns="http://www.w3.org/2000/svg"
   xmlns:sodipodi="http://sodipodi.sourceforge.net/DTD/sodipodi-0.dtd"
   xmlns:inkscape="http://www.inkscape.org/namespaces/inkscape"
   id="svg3464"
   version="1.1"
   inkscape:version="0.91 r13725"
   xml:space="preserve"
   width="16.221968"
   height="20.716545"
   viewBox="0 0 16.221967 20.716545"
   sodipodi:docname="raspberry.svg"><metadata
     id="metadata3470"><rdf:RDF><cc:Work
         rdf:about=""><dc:format>image/svg+xml</dc:format><dc:type
           rdf:resource="http://purl.org/dc/dcmitype/StillImage" /><dc:title></dc:title></cc:Work></rdf:RDF></metadata><defs
     id="defs3468"><clipPath
       clipPathUnits="userSpaceOnUse"
       id="clipPath3556"><path
         d="m 0,1133.147 1438.388,0 L 1438.388,0 0,0 0,1133.147 Z"
         id="path3558"
         inkscape:connector-curvature="0" /></clipPath><clipPath
       clipPathUnits="userSpaceOnUse"
       id="clipPath3564"><path
         d="m 1054.42,893.277 100.46,0 0,-15.172 -100.46,0 0,15.172 z"
         id="path3566"
         inkscape:connector-curvature="0" /></clipPath><clipPath
       clipPathUnits="userSpaceOnUse"
       id="clipPath3684"><path
         d="m 0,1133.147 1438.388,0 L 1438.388,0 0,0 0,1133.147 Z"
         id="path3686"
         inkscape:connector-curvature="0" /></clipPath><clipPath
       clipPathUnits="userSpaceOnUse"
       id="clipPath3692"><path
         d="m 994.422,115.119 246.598,0 0,-45.9718 -246.598,0 0,45.9718 z"
         id="path3694"
         inkscape:connector-curvature="0" /></clipPath><clipPath
       clipPathUnits="userSpaceOnUse"
       id="clipPath3716"><path
         d="m 0,1133.147 1438.388,0 L 1438.388,0 0,0 0,1133.147 Z"
         id="path3718"
         inkscape:connector-curvature="0" /></clipPath></defs><sodipodi:namedview
     pagecolor="#ffffff"
     bordercolor="#666666"
     borderopacity="1"
     objecttolerance="10"
     gridtolerance="10"
     guidetolerance="10"
     inkscape:pageopacity="0"
     inkscape:pageshadow="2"
     inkscape:window-width="1492"
     inkscape:window-height="1005"
     id="namedview3466"
     showgrid="false"
     inkscape:zoom="7.54"
     inkscape:cx="8.7683117"
     inkscape:cy="2.7543006"
     inkscape:window-x="20"
     inkscape:window-y="151"
     inkscape:window-maximized="0"
     inkscape:current-layer="g3472"
     fit-margin-top="0"
     fit-margin-left="0"
     fit-margin-right="0"
     fit-margin-bottom="0" /><g
     id="g3472"
     inkscape:groupmode="layer"
     inkscape:label="machinomy"
     transform="matrix(1.25,0,0,-1.25,-539.95021,1198.3043)"><g
       transform="translate(-0.825,0.775)"
       id="g4665"
       inkscape:export-xdpi="110.96053"
       inkscape:export-ydpi="110.96053"><g
         transform="translate(436.2983,957.8682)"
         id="g3740"><path
           inkscape:connector-curvature="0"
           id="path3742"
           style="fill:#000000;fill-opacity:1;fill-rule:nonzero;stroke:none"
           d="m 0,0 c -0.084,-0.003 -0.174,-0.034 -0.276,-0.114 -0.251,0.096 -0.494,0.13 -0.712,-0.067 -0.335,0.044 -0.445,-0.046 -0.527,-0.151 -0.074,0.001 -0.552,0.076 -0.771,-0.251 -0.551,0.065 -0.725,-0.324 -0.527,-0.687 -0.113,-0.174 -0.229,-0.346 0.034,-0.678 -0.093,-0.185 -0.036,-0.385 0.183,-0.628 -0.057,-0.26 0.056,-0.443 0.26,-0.586 -0.038,-0.356 0.326,-0.562 0.435,-0.636 0.042,-0.207 0.129,-0.403 0.545,-0.511 0.069,-0.309 0.319,-0.362 0.561,-0.427 -0.801,-0.465 -1.487,-1.077 -1.482,-2.579 l -0.117,-0.209 c -0.918,-0.558 -1.744,-2.352 -0.453,-3.81 0.085,-0.456 0.226,-0.784 0.352,-1.147 0.188,-1.461 1.418,-2.146 1.742,-2.227 0.475,-0.362 0.981,-0.705 1.665,-0.946 0.646,-0.665 1.345,-0.919 2.048,-0.919 0.011,0 0.021,0 0.031,0 0.703,0 1.403,0.254 2.048,0.919 0.685,0.241 1.191,0.584 1.666,0.946 0.324,0.081 1.553,0.766 1.742,2.227 0.125,0.363 0.267,0.691 0.351,1.147 1.291,1.458 0.466,3.252 -0.452,3.81 l -0.117,0.209 c 0.004,1.502 -0.682,2.114 -1.482,2.579 0.242,0.065 0.492,0.118 0.561,0.427 0.416,0.108 0.503,0.304 0.544,0.511 0.109,0.074 0.473,0.28 0.435,0.636 0.204,0.143 0.318,0.326 0.26,0.586 0.219,0.243 0.277,0.443 0.184,0.628 0.263,0.332 0.146,0.504 0.034,0.678 0.197,0.363 0.023,0.752 -0.528,0.687 C 8.018,-0.256 7.54,-0.331 7.467,-0.332 7.384,-0.227 7.275,-0.137 6.939,-0.181 6.722,0.016 6.479,-0.018 6.228,-0.114 5.93,0.121 5.733,-0.068 5.508,-0.139 5.147,-0.021 5.065,-0.182 4.888,-0.248 4.495,-0.165 4.375,-0.346 4.187,-0.537 l -0.22,0.004 C 3.374,-0.882 3.08,-1.594 2.975,-1.959 2.871,-1.594 2.577,-0.882 1.984,-0.533 L 1.765,-0.537 C 1.576,-0.346 1.457,-0.165 1.064,-0.248 0.887,-0.182 0.804,-0.021 0.444,-0.139 0.296,-0.092 0.16,0.005 0,0" /></g><g
         transform="translate(435.1178,956.3307)"
         id="g3744"><path
           inkscape:connector-curvature="0"
           id="path3746"
           style="fill:#a8d057;fill-opacity:1;fill-rule:nonzero;stroke:none"
           d="M 0,0 C 1.573,-0.811 2.488,-1.467 2.989,-2.026 2.732,-3.055 1.394,-3.102 0.904,-3.073 c 0.1,0.047 0.184,0.103 0.214,0.189 -0.123,0.087 -0.559,0.009 -0.863,0.18 0.117,0.024 0.172,0.047 0.226,0.134 -0.287,0.091 -0.596,0.17 -0.778,0.322 0.098,-10e-4 0.19,-0.022 0.318,0.067 -0.257,0.139 -0.532,0.249 -0.745,0.46 0.133,0.004 0.276,0.002 0.318,0.051 -0.236,0.146 -0.434,0.308 -0.599,0.485 0.186,-0.022 0.265,-0.003 0.31,0.03 -0.178,0.182 -0.403,0.336 -0.511,0.561 0.139,-0.048 0.265,-0.066 0.356,0.004 -0.06,0.136 -0.319,0.217 -0.469,0.536 0.146,-0.015 0.3,-0.032 0.331,0 -0.068,0.275 -0.184,0.43 -0.297,0.59 0.311,0.004 0.783,-0.001 0.762,0.025 L -0.716,0.758 C -0.412,0.84 -0.1,0.745 0.126,0.674 0.227,0.754 0.124,0.855 0,0.959 0.259,0.924 0.492,0.865 0.703,0.783 0.816,0.885 0.63,0.987 0.54,1.088 0.939,1.013 1.109,0.906 1.277,0.8 1.399,0.917 1.284,1.016 1.201,1.118 1.503,1.006 1.658,0.862 1.821,0.72 1.876,0.795 1.962,0.85 1.859,1.03 2.073,0.907 2.234,0.761 2.353,0.599 2.485,0.683 2.432,0.798 2.432,0.904 2.654,0.724 2.796,0.531 2.968,0.343 3.003,0.369 3.033,0.454 3.06,0.59 3.59,0.076 4.339,-1.219 3.253,-1.733 2.328,-0.97 1.224,-0.416 0,0" /></g><g
         transform="translate(443.466,956.3307)"
         id="g3748"><path
           inkscape:connector-curvature="0"
           id="path3750"
           style="fill:#a8d057;fill-opacity:1;fill-rule:nonzero;stroke:none"
           d="m 0,0 c -1.573,-0.811 -2.488,-1.467 -2.989,-2.026 0.257,-1.029 1.595,-1.076 2.085,-1.047 -0.1,0.047 -0.184,0.103 -0.214,0.189 0.123,0.087 0.559,0.009 0.863,0.18 -0.117,0.024 -0.172,0.047 -0.226,0.134 0.287,0.091 0.596,0.17 0.778,0.322 -0.098,-10e-4 -0.19,-0.022 -0.318,0.067 0.257,0.139 0.532,0.249 0.745,0.46 -0.133,0.004 -0.276,0.002 -0.318,0.051 0.236,0.146 0.434,0.308 0.599,0.485 -0.186,-0.022 -0.265,-0.003 -0.31,0.03 0.178,0.182 0.403,0.336 0.511,0.561 C 1.067,-0.642 0.941,-0.66 0.85,-0.59 c 0.06,0.136 0.319,0.217 0.469,0.536 -0.146,-0.015 -0.3,-0.032 -0.331,0 0.068,0.275 0.184,0.43 0.297,0.59 C 0.974,0.54 0.502,0.535 0.523,0.561 L 0.716,0.758 C 0.412,0.84 0.1,0.745 -0.126,0.674 -0.227,0.754 -0.124,0.855 0,0.959 -0.259,0.924 -0.492,0.865 -0.703,0.783 -0.816,0.885 -0.63,0.987 -0.54,1.088 -0.939,1.013 -1.109,0.906 -1.277,0.8 -1.399,0.917 -1.284,1.016 -1.201,1.118 -1.503,1.006 -1.658,0.862 -1.821,0.72 -1.876,0.795 -1.962,0.85 -1.859,1.03 -2.073,0.907 -2.234,0.761 -2.353,0.599 -2.485,0.683 -2.432,0.798 -2.432,0.904 -2.654,0.724 -2.795,0.531 -2.968,0.343 -3.003,0.369 -3.033,0.454 -3.06,0.59 -3.59,0.076 -4.339,-1.219 -3.253,-1.733 -2.328,-0.97 -1.224,-0.416 0,0" /></g><g
         transform="translate(441.1973,945.8576)"
         id="g3752"><path
           inkscape:connector-curvature="0"
           id="path3754"
           style="fill:#de5080;fill-opacity:1;fill-rule:nonzero;stroke:none"
           d="m 0,0 c 0,-0.96 -0.844,-1.738 -1.885,-1.738 -1.04,0 -1.884,0.778 -1.884,1.738 0,0.96 0.844,1.738 1.884,1.738 C -0.844,1.738 0,0.96 0,0" /></g><g
         transform="translate(438.222,950.822)"
         id="g3756"><path
           inkscape:connector-curvature="0"
           id="path3758"
           style="fill:#de5080;fill-opacity:1;fill-rule:nonzero;stroke:none"
           d="M 0,0 C 0.781,-0.512 0.922,-1.671 0.314,-2.59 -0.293,-3.509 -1.418,-3.839 -2.199,-3.328 -2.98,-2.816 -3.121,-1.656 -2.513,-0.737 -1.906,0.181 -0.781,0.512 0,0" /></g><g
         transform="translate(440.3299,950.9146)"
         id="g3760"><path
           inkscape:connector-curvature="0"
           id="path3762"
           style="fill:#de5080;fill-opacity:1;fill-rule:nonzero;stroke:none"
           d="M 0,0 C -0.781,-0.512 -0.922,-1.671 -0.314,-2.59 0.293,-3.509 1.418,-3.839 2.199,-3.328 2.98,-2.816 3.121,-1.656 2.513,-0.737 1.906,0.181 0.781,0.512 0,0" /></g><g
         transform="translate(434.3194,949.9855)"
         id="g3764"><path
           inkscape:connector-curvature="0"
           id="path3766"
           style="fill:#de5080;fill-opacity:1;fill-rule:nonzero;stroke:none"
           d="M 0,0 C 0.843,0.226 0.285,-3.488 -0.401,-3.183 -1.156,-2.576 -1.399,-0.799 0,0" /></g><g
         transform="translate(444.0623,950.0319)"
         id="g3768"><path
           inkscape:connector-curvature="0"
           id="path3770"
           style="fill:#de5080;fill-opacity:1;fill-rule:nonzero;stroke:none"
           d="M 0,0 C -0.843,0.226 -0.285,-3.488 0.401,-3.183 1.156,-2.576 1.399,-0.799 0,0" /></g><g
         transform="translate(441.1979,952.7974)"
         id="g3772"><path
           inkscape:connector-curvature="0"
           id="path3774"
           style="fill:#de5080;fill-opacity:1;fill-rule:nonzero;stroke:none"
           d="M 0,0 C 1.455,0.246 2.665,-0.619 2.617,-2.196 2.569,-2.801 -0.536,-0.09 0,0" /></g><g
         transform="translate(437.1779,952.8437)"
         id="g3776"><path
           inkscape:connector-curvature="0"
           id="path3778"
           style="fill:#de5080;fill-opacity:1;fill-rule:nonzero;stroke:none"
           d="M 0,0 C -1.455,0.246 -2.665,-0.619 -2.617,-2.196 -2.569,-2.801 0.536,-0.09 0,0" /></g><g
         transform="translate(439.2678,953.2118)"
         id="g3780"><path
           inkscape:connector-curvature="0"
           id="path3782"
           style="fill:#de5080;fill-opacity:1;fill-rule:nonzero;stroke:none"
           d="m 0,0 c -0.868,0.023 -1.702,-0.645 -1.704,-1.031 -0.002,-0.471 0.687,-0.952 1.71,-0.964 1.045,-0.008 1.711,0.385 1.715,0.87 C 1.725,-0.575 0.771,0.008 0,0" /></g><g
         transform="translate(439.3209,943.5709)"
         id="g3784"><path
           inkscape:connector-curvature="0"
           id="path3786"
           style="fill:#de5080;fill-opacity:1;fill-rule:nonzero;stroke:none"
           d="M 0,0 C 0.757,0.033 1.773,-0.244 1.775,-0.611 1.788,-0.968 0.854,-1.774 -0.05,-1.758 -0.986,-1.799 -1.904,-0.991 -1.892,-0.712 -1.906,-0.301 -0.752,0.019 0,0" /></g><g
         transform="translate(436.5244,945.7478)"
         id="g3788"><path
           inkscape:connector-curvature="0"
           id="path3790"
           style="fill:#de5080;fill-opacity:1;fill-rule:nonzero;stroke:none"
           d="M 0,0 C 0.539,-0.649 0.785,-1.79 0.335,-2.127 -0.091,-2.383 -1.124,-2.278 -1.859,-1.222 -2.354,-0.337 -2.29,0.564 -1.942,0.829 -1.422,1.146 -0.619,0.718 0,0" /></g><g
         transform="translate(442.0094,945.9537)"
         id="g3792"><path
           inkscape:connector-curvature="0"
           id="path3794"
           style="fill:#de5080;fill-opacity:1;fill-rule:nonzero;stroke:none"
           d="m 0,0 c -0.583,-0.683 -0.908,-1.929 -0.482,-2.33 0.406,-0.312 1.498,-0.269 2.305,0.851 0.586,0.751 0.389,2.007 0.055,2.34 C 1.381,1.246 0.667,0.754 0,0" /></g></g></g><g
     transform="matrix(1.25,0,0,-1.25,-539.95021,1198.3043)"
     inkscape:label="machinomy copy"
     inkscape:groupmode="layer"
     id="g4818" /></svg>