<?xml version="1.0" encoding="UTF-8" standalone="no"?>
<!-- Created with Inkscape (http://www.inkscape.org/) -->

<svg
   xmlns:dc="http://purl.org/dc/elements/1.1/"
   xmlns:cc="http://creativecommons.org/ns#"
   xmlns:rdf="http://www.w3.org/1999/02/22-rdf-syntax-ns#"
   xmlns:svg="http://www.w3.org/2000/svg"
   xmlns="http://www.w3.org/2000/svg"
   xmlns:sodipodi="http://sodipodi.sourceforge.net/DTD/sodipodi-0.dtd"
   xmlns:inkscape="http://www.inkscape.org/namespaces/inkscape"
   id="svg3464"
   version="1.1"
   inkscape:version="0.91 r13725"
   xml:space="preserve"
   width="28.727295"
   height="45.858208"
   viewBox="0 0 28.727294 45.858209"
   sodipodi:docname="robot.svg"><metadata
     id="metadata3470"><rdf:RDF><cc:Work
         rdf:about=""><dc:format>image/svg+xml</dc:format><dc:type
           rdf:resource="http://purl.org/dc/dcmitype/StillImage" /><dc:title></dc:title></cc:Work></rdf:RDF></metadata><defs
     id="defs3468"><clipPath
       clipPathUnits="userSpaceOnUse"
       id="clipPath3556"><path
         d="m 0,1133.147 1438.388,0 L 1438.388,0 0,0 0,1133.147 Z"
         id="path3558"
         inkscape:connector-curvature="0" /></clipPath><clipPath
       clipPathUnits="userSpaceOnUse"
       id="clipPath3564"><path
         d="m 1054.42,893.277 100.46,0 0,-15.172 -100.46,0 0,15.172 z"
         id="path3566"
         inkscape:connector-curvature="0" /></clipPath><clipPath
       clipPathUnits="userSpaceOnUse"
       id="clipPath3684"><path
         d="m 0,1133.147 1438.388,0 L 1438.388,0 0,0 0,1133.147 Z"
         id="path3686"
         inkscape:connector-curvature="0" /></clipPath><clipPath
       clipPathUnits="userSpaceOnUse"
       id="clipPath3692"><path
         d="m 994.422,115.119 246.598,0 0,-45.9718 -246.598,0 0,45.9718 z"
         id="path3694"
         inkscape:connector-curvature="0" /></clipPath><clipPath
       clipPathUnits="userSpaceOnUse"
       id="clipPath3716"><path
         d="m 0,1133.147 1438.388,0 L 1438.388,0 0,0 0,1133.147 Z"
         id="path3718"
         inkscape:connector-curvature="0" /></clipPath></defs><sodipodi:namedview
     pagecolor="#ffffff"
     bordercolor="#666666"
     borderopacity="1"
     objecttolerance="10"
     gridtolerance="10"
     guidetolerance="10"
     inkscape:pageopacity="0"
     inkscape:pageshadow="2"
     inkscape:window-width="1492"
     inkscape:window-height="1005"
     id="namedview3466"
     showgrid="false"
     inkscape:zoom="5.33"
     inkscape:cx="12.682686"
     inkscape:cy="8.8082567"
     inkscape:window-x="20"
     inkscape:window-y="151"
     inkscape:window-maximized="0"
     inkscape:current-layer="g3472"
     fit-margin-top="0"
     fit-margin-left="0"
     fit-margin-right="0"
     fit-margin-bottom="0" /><g
     id="g3472"
     inkscape:groupmode="layer"
     inkscape:label="machinomy"
     transform="matrix(1.25,0,0,-1.25,-736.28581,715.6908)"><g
       id="g3720"
       transform="translate(595.6329,539.60209)"><path
         d="m 0,0 0,-0.002 c -0.273,0 -0.545,-0.003 -0.818,0.001 -0.323,0.005 -0.534,-0.119 -0.53,-0.471 0.005,-0.46 -0.012,-0.924 0.045,-1.378 0.038,-0.303 0.2,-0.594 0.587,-0.568 0.428,0.029 0.856,0.08 1.282,0.137 0.909,0.12 1.117,0.38 1.046,1.275 C 1.606,-0.934 1.603,-0.862 1.59,-0.791 1.493,-0.256 1.19,-0.003 0.647,0 0.431,0.001 0.216,0 0,0 m 10.378,-1.411 c 0,-0.003 0,-0.006 10e-4,-0.01 0.429,0.031 0.862,0.037 1.285,0.106 0.148,0.025 0.378,0.197 0.386,0.315 0.043,0.607 0.057,1.221 0.011,1.828 C 12.047,1.008 11.836,1.224 11.66,1.332 11,1.737 10.363,1.416 9.742,1.187 9.41,1.064 9.074,0.889 9.049,0.455 9.025,0.039 9.004,-0.377 8.991,-0.793 8.979,-1.206 9.148,-1.444 9.602,-1.414 c 0.258,0.017 0.517,0.003 0.776,0.003 m 1.874,12.853 c -0.316,0.095 -0.604,-0.296 -0.939,-0.542 -0.697,-0.513 -0.572,-1.473 0.219,-1.819 0.197,-0.086 0.389,-0.187 0.587,-0.272 0.635,-0.274 1.258,-0.369 1.865,0.092 0.156,0.117 0.352,0.199 0.542,0.248 0.476,0.125 0.573,0.22 0.435,0.678 -0.083,0.277 -0.215,0.6 -0.43,0.765 -0.606,0.465 -1.302,0.763 -2.279,0.85 m -7.128,-13.3 c 0,0.006 0,0.012 0,0.019 0.101,0 0.205,0.017 0.301,-0.003 0.658,-0.136 1.269,0.135 1.899,0.226 0.116,0.017 0.288,0.193 0.297,0.306 0.048,0.595 0.088,1.196 0.044,1.788 C 7.654,0.627 7.333,0.853 7.141,0.867 6.718,0.897 6.286,0.81 5.858,0.779 5.387,0.744 4.912,0.669 4.445,0.698 3.535,0.753 3.043,0.332 3.062,-0.563 3.065,-0.721 3.068,-0.88 3.086,-1.037 3.129,-1.424 3.657,-1.865 4.05,-1.859 c 0.358,0.005 0.716,10e-4 1.074,10e-4 M 2.406,9.141 c 0.053,1.059 -0.162,1.966 -1.101,2.837 -0.525,0.488 -1.045,0.986 -1.611,1.423 -0.255,0.197 -0.612,0.335 -0.933,0.359 -0.605,0.043 -1.166,-0.139 -1.713,-0.449 -0.492,-0.278 -0.746,-0.735 -1.095,-1.121 -0.293,-0.324 -0.618,-0.66 -0.784,-1.052 -0.424,-0.995 -0.82,-2.022 -0.43,-3.134 0.12,-0.343 0.235,-0.716 0.458,-0.988 0.183,-0.222 0.52,-0.32 0.796,-0.46 0.383,-0.194 0.815,-0.321 1.15,-0.577 C -2.353,5.595 -1.795,5.414 -1.19,5.357 -0.364,5.279 0.434,5.334 0.97,6.11 1.244,6.506 1.468,6.949 1.797,7.29 2.328,7.842 2.396,8.503 2.406,9.141 M 3.883,9.945 C 3.812,9.031 4.014,8.027 3.132,7.336 3.104,7.315 3.103,7.257 3.092,7.216 2.888,6.398 2.37,5.766 1.805,5.19 1.525,4.906 1.05,4.814 0.771,4.53 0.29,4.039 -0.268,3.929 -0.907,3.909 -1.07,3.905 -1.349,3.667 -1.362,3.518 -1.41,2.967 -1.415,2.403 -1.346,1.854 c 0.059,-0.475 0.64,-0.812 1.112,-0.73 0.353,0.062 0.703,0.145 1.057,0.197 1.746,0.252 3.491,0.509 5.24,0.74 1.263,0.167 2.53,0.297 3.797,0.438 0.371,0.041 0.746,0.045 1.115,0.098 0.723,0.104 1.043,0.454 1.045,1.165 0.002,0.676 0.002,1.355 -0.066,2.026 -0.046,0.456 -0.033,0.981 -0.509,1.27 -0.294,0.178 -0.598,0.364 -0.924,0.46 C 10.009,7.668 9.81,8.024 9.745,8.496 9.694,8.865 9.594,9.253 9.658,9.607 c 0.087,0.481 0.205,1.021 0.497,1.385 0.383,0.478 0.935,0.829 1.442,1.196 0.294,0.211 0.504,0.444 0.475,0.809 -0.081,1.01 0.104,2.045 -0.299,3.026 -0.075,0.183 -0.092,0.391 -0.139,0.587 -0.253,1.059 -0.658,2.015 -1.457,2.817 -0.574,0.577 -1.311,0.851 -1.935,1.315 -0.46,0.341 -0.966,0.467 -1.506,0.547 C 6.652,21.301 6.573,21.345 6.49,21.37 5.961,21.53 5.437,21.715 4.899,21.838 4.538,21.92 4.155,21.947 3.784,21.934 3.346,21.919 2.85,21.949 2.489,21.754 1.969,21.472 1.572,20.973 1.079,20.628 0.414,20.161 -0.01,19.556 -0.213,18.777 c -0.035,-0.131 -0.141,-0.243 -0.206,-0.368 -0.129,-0.244 -0.336,-0.483 -0.36,-0.739 -0.053,-0.585 -0.046,-1.181 0.002,-1.767 0.019,-0.23 0.184,-0.608 0.336,-0.637 0.55,-0.106 0.926,-0.419 1.357,-0.74 0.822,-0.614 1.578,-1.256 2.181,-2.1 0.54,-0.755 0.94,-1.516 0.786,-2.481 m -6.68,-10.563 c 0,1.409 -0.008,2.818 0.006,4.227 0.004,0.426 -0.118,0.745 -0.489,0.982 -0.507,0.325 -0.992,0.684 -1.497,1.013 -0.1,0.066 -0.245,0.079 -0.371,0.084 -0.477,0.019 -0.73,0.287 -0.921,0.704 -0.737,1.61 -0.704,3.252 0.044,4.794 0.595,1.226 1.408,2.362 2.561,3.179 0.279,0.196 0.574,0.369 0.845,0.575 0.132,0.1 0.282,0.236 0.325,0.384 0.151,0.523 0.255,1.059 0.386,1.588 0.086,0.345 0.159,0.698 0.29,1.026 0.279,0.701 0.519,1.412 0.944,2.061 0.568,0.867 1.246,1.602 2.104,2.167 0.372,0.244 0.782,0.438 1.191,0.617 0.462,0.2 0.579,0.415 0.582,0.923 0.007,1.034 0.056,2.068 0.093,3.103 0.021,0.587 0.126,1.184 0.055,1.759 -0.044,0.362 -0.276,0.764 -0.543,1.023 -0.528,0.51 -0.616,0.827 -0.151,1.372 0.474,0.556 0.959,1.105 1.466,1.631 0.451,0.467 1.458,0.471 1.956,0.037 C 6.449,32.309 6.269,31.906 6.123,31.6 5.9,31.13 5.624,30.648 5.251,30.296 4.741,29.814 4.59,29.253 4.565,28.606 4.529,27.657 4.464,26.708 4.458,25.759 4.454,25.072 4.525,24.385 4.564,23.698 4.581,23.388 4.809,23.305 5.058,23.243 6.075,22.991 7.112,22.797 8.1,22.46 c 0.64,-0.219 1.226,-0.62 1.801,-0.994 0.56,-0.365 1.153,-0.729 1.587,-1.222 0.452,-0.513 0.79,-1.153 1.069,-1.785 0.308,-0.699 0.558,-1.439 0.712,-2.186 0.146,-0.708 0.186,-1.449 0.184,-2.175 -0.005,-1.077 0.46,-1.74 1.467,-2.101 1.149,-0.411 1.691,-1.498 1.363,-2.844 C 16.059,8.237 15.367,7.704 14.734,7.112 14.406,6.806 14.082,6.566 13.587,6.781 13.339,6.889 13.172,6.75 13.194,6.453 13.23,5.967 13.272,5.482 13.297,4.995 c 0.02,-0.384 0.019,-0.768 0.024,-1.153 10e-4,-0.1 -0.041,-0.211 -0.012,-0.3 0.324,-0.979 -0.004,-1.99 0.155,-2.98 0.063,-0.393 0.028,-0.803 0.028,-1.205 C 13.491,-1.401 13.033,-1.921 12.538,-2.41 12.436,-2.51 12.261,-2.578 12.116,-2.585 10.725,-2.652 9.332,-2.688 7.942,-2.765 7.197,-2.806 6.457,-2.929 5.713,-2.978 4.881,-3.034 4.04,-2.995 3.215,-3.093 2.192,-3.214 1.185,-3.468 0.163,-3.602 c -0.771,-0.101 -1.555,-0.115 -2.335,-0.134 -0.099,-0.002 -0.273,0.189 -0.295,0.311 -0.12,0.688 -0.212,1.381 -0.296,2.075 -0.029,0.241 -0.004,0.488 -0.004,0.732 -0.01,0 -0.02,0 -0.03,0"
         style="fill:#231f20;fill-opacity:1;fill-rule:nonzero;stroke:none"
         id="path3722"
         inkscape:connector-curvature="0" /></g><g
       id="g3724"
       transform="translate(594.933,549.51589)"><path
         d="m 0,0 c -0.066,-0.422 -0.593,-1.2 -0.956,-1.302 -0.376,-0.106 -0.632,0.12 -0.857,0.371 -0.208,0.23 -0.238,0.488 -0.03,0.741 0.2,0.243 0.368,0.541 0.622,0.702 0.231,0.147 0.597,0.251 0.83,0.168 C -0.204,0.613 -0.126,0.238 0,0"
         style="fill:#231f20;fill-opacity:1;fill-rule:nonzero;stroke:none"
         id="path3726"
         inkscape:connector-curvature="0" /></g></g></svg>