<svg xmlns="http://www.w3.org/2000/svg" width="528.02" height="161.66" viewBox="0 0 528.02 161.66"><defs><style>.cls-1{font-size:21px;font-family:PTSans-Regular, PT Sans;}.cls-2{fill:#fff;}.cls-3,.cls-5,.cls-6{fill:none;stroke-miterlimit:10;}.cls-3{stroke:#d03f71;}.cls-4{fill:#d03f71;}.cls-5,.cls-6{stroke:#000;}.cls-6{stroke-dasharray:11.7 11.7;}.cls-7{letter-spacing:-0.05em;}.cls-8{letter-spacing:-0.01em;}.cls-9{letter-spacing:-0.02em;}.cls-10{letter-spacing:-0.01em;}.cls-11{letter-spacing:-0.03em;}</style></defs><title>Asset 1</title><g id="Layer_2" data-name="Layer 2"><g id="Layer_1-2" data-name="Layer 1"><text class="cls-1" transform="translate(34.05 48.89)">Sender</text><rect class="cls-2" x="124.52" y="27.16" width="280" height="134"/><path d="M404,27.66v133H125v-133H404m1-1H124v135H405v-135Z"/><line class="cls-3" x1="1.02" y1="56.16" x2="116.96" y2="56.16"/><polygon class="cls-4" points="124.02 56.16 114.08 60.22 116.44 56.16 114.08 52.09 124.02 56.16"/><line class="cls-5" x1="2.02" y1="132.16" x2="117.96" y2="132.16"/><polygon points="125.02 132.16 115.08 136.22 117.44 132.16 115.08 128.09 125.02 132.16"/><line class="cls-5" x1="404.02" y1="56.16" x2="519.96" y2="56.16"/><polygon points="527.02 56.16 517.08 60.22 519.44 56.16 517.08 52.09 527.02 56.16"/><line class="cls-3" x1="405.02" y1="132.16" x2="520.96" y2="132.16"/><polygon class="cls-4" points="528.02 132.16 518.08 136.22 520.44 132.16 518.08 128.09 528.02 132.16"/><line class="cls-5" x1="123.52" y1="56.16" x2="129.52" y2="56.16"/><line class="cls-6" x1="141.22" y1="56.16" x2="392.68" y2="56.16"/><line class="cls-5" x1="398.52" y1="56.16" x2="404.52" y2="56.16"/><line class="cls-5" x1="124.02" y1="132.16" x2="130.02" y2="132.16"/><line class="cls-6" x1="141.72" y1="132.16" x2="393.18" y2="132.16"/><line class="cls-5" x1="399.02" y1="132.16" x2="405.02" y2="132.16"/><line class="cls-3" x1="193.52" y1="56.66" x2="193.52" y2="125.6"/><polygon class="cls-4" points="193.52 132.66 189.46 122.71 193.52 125.07 197.59 122.71 193.52 132.66"/><line class="cls-3" x1="146.52" y1="56.66" x2="146.52" y2="125.6"/><polygon class="cls-4" points="146.52 132.66 142.46 122.71 146.52 125.07 150.59 122.71 146.52 132.66"/><line class="cls-3" x1="241.52" y1="55.66" x2="241.52" y2="124.6"/><polygon class="cls-4" points="241.52 131.66 237.46 121.71 241.52 124.07 245.59 121.71 241.52 131.66"/><line class="cls-3" x1="287.52" y1="55.66" x2="287.52" y2="124.6"/><polygon class="cls-4" points="287.52 131.66 283.46 121.71 287.52 124.07 291.59 121.71 287.52 131.66"/><line class="cls-3" x1="335.52" y1="55.66" x2="335.52" y2="124.6"/><polygon class="cls-4" points="335.52 131.66 331.46 121.71 335.52 124.07 339.59 121.71 335.52 131.66"/><line class="cls-3" x1="381.52" y1="55.66" x2="381.52" y2="124.6"/><polygon class="cls-4" points="381.52 131.66 377.46 121.71 381.52 124.07 385.59 121.71 381.52 131.66"/><text class="cls-1" transform="translate(432.05 48.89)">Sender</text><text class="cls-1" transform="translate(25.8 127.89)"><tspan class="cls-7">R</tspan><tspan class="cls-8" x="11.49" y="0">e</tspan><tspan class="cls-9" x="21.92" y="0">c</tspan><tspan x="30.91" y="0">ei</tspan><tspan class="cls-10" x="47.21" y="0">v</tspan><tspan x="57.1" y="0">er</tspan></text><text class="cls-1" transform="translate(426.8 125.89)"><tspan class="cls-7">R</tspan><tspan class="cls-8" x="11.49" y="0">e</tspan><tspan class="cls-9" x="21.92" y="0">c</tspan><tspan x="30.91" y="0">ei</tspan><tspan class="cls-10" x="47.21" y="0">v</tspan><tspan x="57.1" y="0">er</tspan></text><text class="cls-1" transform="translate(185.47 17.85)"><tspan class="cls-11">P</tspan><tspan x="11" y="0">ayment Channel</tspan></text></g></g></svg>