<svg id="Layer_1" data-name="Layer 1" xmlns="http://www.w3.org/2000/svg" width="120" height="120" viewBox="0 0 120 120"><title>Artboard 1</title><path d="M48.84,36.22a48.14,48.14,0,0,0,19.84,1.25c1.19-.21.68-2-.5-1.8-6.12,1.06-12.88.3-18.84-1.25a.94.94,0,0,0-.5,1.8Z"/><path d="M46.72,35.47C38.52,47.7,28,60.69,27.28,76c-.78,16.27,16.75,27.31,30.77,30.2,15.8,3.26,29.4-9.47,33.5-23.9C96.79,63.84,79,48.8,69.54,35.47c-.69-1-2.32,0-1.62.94,8.58,12,21.4,22.84,22.53,38.55.6,8.29-4,15.88-9.44,21.71-7.1,7.66-16.26,9.48-26.1,6.89-15.18-4-28.35-16.75-25.07-33.18,2.51-12.56,11.51-23.58,18.48-34,.67-1-.95-1.94-1.62-.94Z"/><path d="M50.71,25.62c2.82.82,6.52.08,9.38-.15,2.27-.18,6.15.06,8.19-1.19,1-.63.08-2.25-.95-1.62-1.87,1.15-5.83.82-8,1-2.45.19-5.76.86-8.17.16a.94.94,0,0,0-.5,1.81Z"/><path d="M44.12,13.73a46.78,46.78,0,0,0,3.46,6.55c.86,1.45,1.8,3.59,3.21,4.61,1,.71,1.92-.92.95-1.62s-2.08-3.15-2.79-4.36a40.8,40.8,0,0,1-3-5.69c-.44-1.11-2.25-.63-1.81.5Z"/><path d="M43.74,13.21c3.1,3.66,8.08,4.32,12.64,3.66a28.35,28.35,0,0,0,7.21-2c1.67-.71,8.8-4.14,6.19.58-1.11,2-2.39,3.88-3.42,5.94-.54,1.08,1.07,2,1.62.94,1.55-3.09,3.55-5.9,5-9a1,1,0,0,0-.34-1.28c-3.75-2.15-6.39-.64-10,1.25-5,2.65-13.67,3.21-17.58-1.41-.78-.92-2.1.41-1.32,1.32Z"/><path d="M70.54,54.7c-6.66-1.68-13.4-2.57-19.18,2.14-2.87,2.34-4.25,6-.48,8.39a17.49,17.49,0,0,0,6.87,2.34c4.74.72,10.69-1.75,14.09,2.8,2.36,3.16-1.6,6.2-3.77,7.61-2.73,1.78-6.53,1.35-9.56.89-3.69-.56-7.27-1.64-11-2.07-1.2-.14-1.18,1.74,0,1.87,6.24.71,14.16,4.43,20.32,1.48,4.27-2,7.91-5.88,5.62-10.74-2.87-6.09-12.41-3-17.42-4.06a11.18,11.18,0,0,1-4.65-2.1c-2.63-2.08.55-4.58,2.2-5.69C58.84,54,64.35,55.06,70,56.5a.94.94,0,0,0,.5-1.81Z"/><path d="M55,47.8c1.17,12.56,1.54,25.14,1.56,37.74a.94.94,0,0,0,1.87,0c0-12.61-.39-25.19-1.56-37.74-.11-1.19-2-1.2-1.87,0Z"/><path d="M61,48.67a111.27,111.27,0,0,1,.9,22.21c-.2,5.11,2.26,10.74,1.74,15.7l1.74-.47-.18-.41c-.48-1.11-2.09-.15-1.62.94l.18.41c.41,1,1.66.33,1.74-.47.52-4.91-1.58-10.68-1.74-15.7-.23-7.65.27-15.09-1-22.71-.19-1.19-2-.68-1.81.5Z"/></svg>